<?xml version="1.0" encoding="utf-8" standalone="no"?>
<!DOCTYPE svg PUBLIC "-//W3C//DTD SVG 1.1//EN"
  "http://www.w3.org/Graphics/SVG/1.1/DTD/svg11.dtd">
<svg xmlns:xlink="http://www.w3.org/1999/xlink" width="396pt" height="288pt" viewBox="0 0 396 288" xmlns="http://www.w3.org/2000/svg" version="1.1">
 <metadata>
  <rdf:RDF xmlns:dc="http://purl.org/dc/elements/1.1/" xmlns:cc="http://creativecommons.org/ns#" xmlns:rdf="http://www.w3.org/1999/02/22-rdf-syntax-ns#">
   <cc:Work>
    <dc:type rdf:resource="http://purl.org/dc/dcmitype/StillImage"/>
    <dc:date>2025-06-13T13:52:32.969322</dc:date>
    <dc:format>image/svg+xml</dc:format>
    <dc:creator>
     <cc:Agent>
      <dc:title>Matplotlib v3.10.1, https://matplotlib.org/</dc:title>
     </cc:Agent>
    </dc:creator>
   </cc:Work>
  </rdf:RDF>
 </metadata>
 <defs>
  <style type="text/css">*{stroke-linejoin: round; stroke-linecap: butt}</style>
 </defs>
 <g id="figure_1">
  <g id="patch_1">
   <path d="M 0 288 
L 396 288 
L 396 0 
L 0 0 
z
" style="fill: #ffffff"/>
  </g>
  <g id="axes_1">
   <g id="patch_2">
    <path d="M 59.771352 101.68 
L 385.2 101.68 
L 385.2 10.8 
L 59.771352 10.8 
z
" style="fill: #ffffff"/>
   </g>
   <g id="patch_3">
    <path d="M 74.563563 25269.375221 
L 84.425037 25269.375221 
L 84.425037 14.930909 
L 74.563563 14.930909 
z
" clip-path="url(#p31a86f1b7c)" style="fill: #1f77b4"/>
   </g>
   <g id="patch_4">
    <path d="M 84.425037 25269.375221 
L 94.286511 25269.375221 
L 94.286511 67.239192 
L 84.425037 67.239192 
z
" clip-path="url(#p31a86f1b7c)" style="fill: #1f77b4"/>
   </g>
   <g id="patch_5">
    <path d="M 94.286511 25269.375221 
L 104.147985 25269.375221 
L 104.147985 68.698955 
L 94.286511 68.698955 
z
" clip-path="url(#p31a86f1b7c)" style="fill: #1f77b4"/>
   </g>
   <g id="patch_6">
    <path d="M 104.147985 25269.375221 
L 114.00946 25269.375221 
L 114.00946 73.529064 
L 104.147985 73.529064 
z
" clip-path="url(#p31a86f1b7c)" style="fill: #1f77b4"/>
   </g>
   <g id="patch_7">
    <path d="M 114.00946 25269.375221 
L 123.870934 25269.375221 
L 123.870934 97.549091 
L 114.00946 97.549091 
z
" clip-path="url(#p31a86f1b7c)" style="fill: #1f77b4"/>
   </g>
   <g id="patch_8">
    <path d="M 123.870934 25269.375221 
L 133.732408 25269.375221 
L 133.732408 25269.375221 
L 123.870934 25269.375221 
z
" clip-path="url(#p31a86f1b7c)" style="fill: #1f77b4"/>
   </g>
   <g id="patch_9">
    <path d="M 133.732408 25269.375221 
L 143.593882 25269.375221 
L 143.593882 25269.375221 
L 133.732408 25269.375221 
z
" clip-path="url(#p31a86f1b7c)" style="fill: #1f77b4"/>
   </g>
   <g id="patch_10">
    <path d="M 143.593882 25269.375221 
L 153.455356 25269.375221 
L 153.455356 97.549091 
L 143.593882 97.549091 
z
" clip-path="url(#p31a86f1b7c)" style="fill: #1f77b4"/>
   </g>
   <g id="patch_11">
    <path d="M 153.455356 25269.375221 
L 163.316831 25269.375221 
L 163.316831 25269.375221 
L 153.455356 25269.375221 
z
" clip-path="url(#p31a86f1b7c)" style="fill: #1f77b4"/>
   </g>
   <g id="patch_12">
    <path d="M 163.316831 25269.375221 
L 173.178305 25269.375221 
L 173.178305 25269.375221 
L 163.316831 25269.375221 
z
" clip-path="url(#p31a86f1b7c)" style="fill: #1f77b4"/>
   </g>
   <g id="patch_13">
    <path d="M 173.178305 25269.375221 
L 183.039779 25269.375221 
L 183.039779 25269.375221 
L 173.178305 25269.375221 
z
" clip-path="url(#p31a86f1b7c)" style="fill: #1f77b4"/>
   </g>
   <g id="patch_14">
    <path d="M 183.039779 25269.375221 
L 192.901253 25269.375221 
L 192.901253 25269.375221 
L 183.039779 25269.375221 
z
" clip-path="url(#p31a86f1b7c)" style="fill: #1f77b4"/>
   </g>
   <g id="patch_15">
    <path d="M 192.901253 25269.375221 
L 202.762727 25269.375221 
L 202.762727 97.549091 
L 192.901253 97.549091 
z
" clip-path="url(#p31a86f1b7c)" style="fill: #1f77b4"/>
   </g>
   <g id="patch_16">
    <path d="M 202.762727 25269.375221 
L 212.624202 25269.375221 
L 212.624202 25269.375221 
L 202.762727 25269.375221 
z
" clip-path="url(#p31a86f1b7c)" style="fill: #1f77b4"/>
   </g>
   <g id="patch_17">
    <path d="M 212.624202 25269.375221 
L 222.485676 25269.375221 
L 222.485676 25269.375221 
L 212.624202 25269.375221 
z
" clip-path="url(#p31a86f1b7c)" style="fill: #1f77b4"/>
   </g>
   <g id="patch_18">
    <path d="M 222.485676 25269.375221 
L 232.34715 25269.375221 
L 232.34715 25269.375221 
L 222.485676 25269.375221 
z
" clip-path="url(#p31a86f1b7c)" style="fill: #1f77b4"/>
   </g>
   <g id="patch_19">
    <path d="M 232.34715 25269.375221 
L 242.208624 25269.375221 
L 242.208624 25269.375221 
L 232.34715 25269.375221 
z
" clip-path="url(#p31a86f1b7c)" style="fill: #1f77b4"/>
   </g>
   <g id="patch_20">
    <path d="M 242.208624 25269.375221 
L 252.070098 25269.375221 
L 252.070098 25269.375221 
L 242.208624 25269.375221 
z
" clip-path="url(#p31a86f1b7c)" style="fill: #1f77b4"/>
   </g>
   <g id="patch_21">
    <path d="M 252.070098 25269.375221 
L 261.931573 25269.375221 
L 261.931573 97.549091 
L 252.070098 97.549091 
z
" clip-path="url(#p31a86f1b7c)" style="fill: #1f77b4"/>
   </g>
   <g id="patch_22">
    <path d="M 261.931573 25269.375221 
L 271.793047 25269.375221 
L 271.793047 25269.375221 
L 261.931573 25269.375221 
z
" clip-path="url(#p31a86f1b7c)" style="fill: #1f77b4"/>
   </g>
   <g id="patch_23">
    <path d="M 271.793047 25269.375221 
L 281.654521 25269.375221 
L 281.654521 25269.375221 
L 271.793047 25269.375221 
z
" clip-path="url(#p31a86f1b7c)" style="fill: #1f77b4"/>
   </g>
   <g id="patch_24">
    <path d="M 281.654521 25269.375221 
L 291.515995 25269.375221 
L 291.515995 97.549091 
L 281.654521 97.549091 
z
" clip-path="url(#p31a86f1b7c)" style="fill: #1f77b4"/>
   </g>
   <g id="patch_25">
    <path d="M 291.515995 25269.375221 
L 301.377469 25269.375221 
L 301.377469 25269.375221 
L 291.515995 25269.375221 
z
" clip-path="url(#p31a86f1b7c)" style="fill: #1f77b4"/>
   </g>
   <g id="patch_26">
    <path d="M 301.377469 25269.375221 
L 311.238944 25269.375221 
L 311.238944 25269.375221 
L 301.377469 25269.375221 
z
" clip-path="url(#p31a86f1b7c)" style="fill: #1f77b4"/>
   </g>
   <g id="patch_27">
    <path d="M 311.238944 25269.375221 
L 321.100418 25269.375221 
L 321.100418 25269.375221 
L 311.238944 25269.375221 
z
" clip-path="url(#p31a86f1b7c)" style="fill: #1f77b4"/>
   </g>
   <g id="patch_28">
    <path d="M 321.100418 25269.375221 
L 330.961892 25269.375221 
L 330.961892 25269.375221 
L 321.100418 25269.375221 
z
" clip-path="url(#p31a86f1b7c)" style="fill: #1f77b4"/>
   </g>
   <g id="patch_29">
    <path d="M 330.961892 25269.375221 
L 340.823366 25269.375221 
L 340.823366 25269.375221 
L 330.961892 25269.375221 
z
" clip-path="url(#p31a86f1b7c)" style="fill: #1f77b4"/>
   </g>
   <g id="patch_30">
    <path d="M 340.823366 25269.375221 
L 350.68484 25269.375221 
L 350.68484 25269.375221 
L 340.823366 25269.375221 
z
" clip-path="url(#p31a86f1b7c)" style="fill: #1f77b4"/>
   </g>
   <g id="patch_31">
    <path d="M 350.68484 25269.375221 
L 360.546315 25269.375221 
L 360.546315 25269.375221 
L 350.68484 25269.375221 
z
" clip-path="url(#p31a86f1b7c)" style="fill: #1f77b4"/>
   </g>
   <g id="patch_32">
    <path d="M 360.546315 25269.375221 
L 370.407789 25269.375221 
L 370.407789 97.549091 
L 360.546315 97.549091 
z
" clip-path="url(#p31a86f1b7c)" style="fill: #1f77b4"/>
   </g>
   <g id="matplotlib.axis_1">
    <g id="xtick_1">
     <g id="line2d_1">
      <defs>
       <path id="m07ad39538e" d="M 0 0 
L 0 3.5 
" style="stroke: #000000; stroke-width: 0.8"/>
      </defs>
      <g>
       <use xlink:href="#m07ad39538e" x="74.563563" y="101.68" style="stroke: #000000; stroke-width: 0.8"/>
      </g>
     </g>
     <g id="text_1">
      <!-- 0.00 -->
      <g transform="translate(58.977625 119.317812) scale(0.14 -0.14)">
       <defs>
        <path id="DejaVuSerif-30" d="M 2034 219 
Q 2513 219 2750 744 
Q 2988 1269 2988 2328 
Q 2988 3391 2750 3916 
Q 2513 4441 2034 4441 
Q 1556 4441 1318 3916 
Q 1081 3391 1081 2328 
Q 1081 1269 1318 744 
Q 1556 219 2034 219 
z
M 2034 -91 
Q 1275 -91 848 546 
Q 422 1184 422 2328 
Q 422 3475 848 4112 
Q 1275 4750 2034 4750 
Q 2797 4750 3222 4112 
Q 3647 3475 3647 2328 
Q 3647 1184 3222 546 
Q 2797 -91 2034 -91 
z
" transform="scale(0.015625)"/>
        <path id="DejaVuSerif-2e" d="M 603 325 
Q 603 500 722 622 
Q 841 744 1019 744 
Q 1191 744 1312 622 
Q 1434 500 1434 325 
Q 1434 153 1312 31 
Q 1191 -91 1019 -91 
Q 841 -91 722 29 
Q 603 150 603 325 
z
" transform="scale(0.015625)"/>
       </defs>
       <use xlink:href="#DejaVuSerif-30"/>
       <use xlink:href="#DejaVuSerif-2e" transform="translate(63.623047 0)"/>
       <use xlink:href="#DejaVuSerif-30" transform="translate(95.410156 0)"/>
       <use xlink:href="#DejaVuSerif-30" transform="translate(159.033203 0)"/>
      </g>
     </g>
    </g>
    <g id="xtick_2">
     <g id="line2d_2">
      <g>
       <use xlink:href="#m07ad39538e" x="165.274416" y="101.68" style="stroke: #000000; stroke-width: 0.8"/>
      </g>
     </g>
     <g id="text_2">
      <!-- 0.05 -->
      <g transform="translate(149.688478 119.317812) scale(0.14 -0.14)">
       <defs>
        <path id="DejaVuSerif-35" d="M 3219 4666 
L 3219 4153 
L 1081 4153 
L 1081 2816 
Q 1244 2928 1461 2984 
Q 1678 3041 1947 3041 
Q 2703 3041 3140 2622 
Q 3578 2203 3578 1478 
Q 3578 738 3136 323 
Q 2694 -91 1894 -91 
Q 1572 -91 1234 -12 
Q 897 66 544 225 
L 544 1131 
L 897 1131 
Q 925 688 1179 453 
Q 1434 219 1894 219 
Q 2388 219 2653 544 
Q 2919 869 2919 1478 
Q 2919 2084 2655 2407 
Q 2391 2731 1894 2731 
Q 1613 2731 1398 2631 
Q 1184 2531 1019 2322 
L 750 2322 
L 750 4666 
L 3219 4666 
z
" transform="scale(0.015625)"/>
       </defs>
       <use xlink:href="#DejaVuSerif-30"/>
       <use xlink:href="#DejaVuSerif-2e" transform="translate(63.623047 0)"/>
       <use xlink:href="#DejaVuSerif-30" transform="translate(95.410156 0)"/>
       <use xlink:href="#DejaVuSerif-35" transform="translate(159.033203 0)"/>
      </g>
     </g>
    </g>
    <g id="xtick_3">
     <g id="line2d_3">
      <g>
       <use xlink:href="#m07ad39538e" x="255.985269" y="101.68" style="stroke: #000000; stroke-width: 0.8"/>
      </g>
     </g>
     <g id="text_3">
      <!-- 0.10 -->
      <g transform="translate(240.399331 119.317812) scale(0.14 -0.14)">
       <defs>
        <path id="DejaVuSerif-31" d="M 909 0 
L 909 331 
L 1722 331 
L 1722 4213 
L 781 3603 
L 781 4013 
L 1919 4750 
L 2350 4750 
L 2350 331 
L 3163 331 
L 3163 0 
L 909 0 
z
" transform="scale(0.015625)"/>
       </defs>
       <use xlink:href="#DejaVuSerif-30"/>
       <use xlink:href="#DejaVuSerif-2e" transform="translate(63.623047 0)"/>
       <use xlink:href="#DejaVuSerif-31" transform="translate(95.410156 0)"/>
       <use xlink:href="#DejaVuSerif-30" transform="translate(159.033203 0)"/>
      </g>
     </g>
    </g>
    <g id="xtick_4">
     <g id="line2d_4">
      <g>
       <use xlink:href="#m07ad39538e" x="346.696121" y="101.68" style="stroke: #000000; stroke-width: 0.8"/>
      </g>
     </g>
     <g id="text_4">
      <!-- 0.15 -->
      <g transform="translate(331.110184 119.317812) scale(0.14 -0.14)">
       <use xlink:href="#DejaVuSerif-30"/>
       <use xlink:href="#DejaVuSerif-2e" transform="translate(63.623047 0)"/>
       <use xlink:href="#DejaVuSerif-31" transform="translate(95.410156 0)"/>
       <use xlink:href="#DejaVuSerif-35" transform="translate(159.033203 0)"/>
      </g>
     </g>
    </g>
    <g id="text_5">
     <!-- Node centrality -->
     <g transform="translate(167.147395 136.867187) scale(0.14 -0.14)">
      <defs>
       <path id="DejaVuSerif-4e" d="M 313 0 
L 313 331 
L 941 331 
L 941 4331 
L 313 4331 
L 313 4666 
L 1509 4666 
L 4306 984 
L 4306 4331 
L 3681 4331 
L 3681 4666 
L 5319 4666 
L 5319 4331 
L 4691 4331 
L 4691 -91 
L 4313 -91 
L 1325 3841 
L 1325 331 
L 1953 331 
L 1953 0 
L 313 0 
z
" transform="scale(0.015625)"/>
       <path id="DejaVuSerif-6f" d="M 1925 219 
Q 2388 219 2623 584 
Q 2859 950 2859 1663 
Q 2859 2375 2623 2739 
Q 2388 3103 1925 3103 
Q 1463 3103 1227 2739 
Q 991 2375 991 1663 
Q 991 950 1228 584 
Q 1466 219 1925 219 
z
M 1925 -91 
Q 1200 -91 759 389 
Q 319 869 319 1663 
Q 319 2456 758 2934 
Q 1197 3413 1925 3413 
Q 2653 3413 3092 2934 
Q 3531 2456 3531 1663 
Q 3531 869 3092 389 
Q 2653 -91 1925 -91 
z
" transform="scale(0.015625)"/>
       <path id="DejaVuSerif-64" d="M 3359 331 
L 3909 331 
L 3909 0 
L 2784 0 
L 2784 519 
Q 2616 206 2355 57 
Q 2094 -91 1709 -91 
Q 1097 -91 708 395 
Q 319 881 319 1663 
Q 319 2444 706 2928 
Q 1094 3413 1709 3413 
Q 2094 3413 2355 3264 
Q 2616 3116 2784 2803 
L 2784 4531 
L 2241 4531 
L 2241 4863 
L 3359 4863 
L 3359 331 
z
M 2784 1497 
L 2784 1825 
Q 2784 2422 2554 2737 
Q 2325 3053 1888 3053 
Q 1444 3053 1217 2703 
Q 991 2353 991 1663 
Q 991 975 1217 622 
Q 1444 269 1888 269 
Q 2325 269 2554 583 
Q 2784 897 2784 1497 
z
" transform="scale(0.015625)"/>
       <path id="DejaVuSerif-65" d="M 3469 1600 
L 991 1600 
L 991 1575 
Q 991 903 1244 561 
Q 1497 219 1991 219 
Q 2369 219 2611 417 
Q 2853 616 2950 1006 
L 3413 1006 
Q 3275 459 2904 184 
Q 2534 -91 1931 -91 
Q 1203 -91 761 389 
Q 319 869 319 1663 
Q 319 2450 753 2931 
Q 1188 3413 1894 3413 
Q 2647 3413 3050 2948 
Q 3453 2484 3469 1600 
z
M 2791 1931 
Q 2772 2513 2545 2808 
Q 2319 3103 1894 3103 
Q 1497 3103 1269 2806 
Q 1041 2509 991 1931 
L 2791 1931 
z
" transform="scale(0.015625)"/>
       <path id="DejaVuSerif-20" transform="scale(0.015625)"/>
       <path id="DejaVuSerif-63" d="M 3291 997 
Q 3169 466 2822 187 
Q 2475 -91 1925 -91 
Q 1200 -91 759 389 
Q 319 869 319 1663 
Q 319 2459 759 2936 
Q 1200 3413 1925 3413 
Q 2241 3413 2553 3339 
Q 2866 3266 3181 3116 
L 3181 2266 
L 2847 2266 
Q 2781 2703 2561 2903 
Q 2341 3103 1931 3103 
Q 1466 3103 1228 2742 
Q 991 2381 991 1663 
Q 991 944 1227 581 
Q 1463 219 1931 219 
Q 2303 219 2525 412 
Q 2747 606 2828 997 
L 3291 997 
z
" transform="scale(0.015625)"/>
       <path id="DejaVuSerif-6e" d="M 263 0 
L 263 331 
L 781 331 
L 781 2988 
L 231 2988 
L 231 3322 
L 1356 3322 
L 1356 2731 
Q 1516 3069 1770 3241 
Q 2025 3413 2363 3413 
Q 2913 3413 3172 3097 
Q 3431 2781 3431 2113 
L 3431 331 
L 3944 331 
L 3944 0 
L 2356 0 
L 2356 331 
L 2853 331 
L 2853 1931 
Q 2853 2541 2703 2767 
Q 2553 2994 2175 2994 
Q 1775 2994 1565 2701 
Q 1356 2409 1356 1850 
L 1356 331 
L 1856 331 
L 1856 0 
L 263 0 
z
" transform="scale(0.015625)"/>
       <path id="DejaVuSerif-74" d="M 691 2988 
L 184 2988 
L 184 3322 
L 691 3322 
L 691 4353 
L 1269 4353 
L 1269 3322 
L 2350 3322 
L 2350 2988 
L 1269 2988 
L 1269 878 
Q 1269 456 1350 337 
Q 1431 219 1650 219 
Q 1875 219 1978 351 
Q 2081 484 2088 781 
L 2522 781 
Q 2497 328 2275 118 
Q 2053 -91 1600 -91 
Q 1103 -91 897 129 
Q 691 350 691 878 
L 691 2988 
z
" transform="scale(0.015625)"/>
       <path id="DejaVuSerif-72" d="M 3059 3328 
L 3059 2497 
L 2728 2497 
Q 2713 2744 2591 2866 
Q 2469 2988 2234 2988 
Q 1809 2988 1582 2694 
Q 1356 2400 1356 1850 
L 1356 331 
L 2022 331 
L 2022 0 
L 263 0 
L 263 331 
L 781 331 
L 781 2994 
L 231 2994 
L 231 3322 
L 1356 3322 
L 1356 2731 
Q 1525 3078 1790 3245 
Q 2056 3413 2438 3413 
Q 2578 3413 2733 3391 
Q 2888 3369 3059 3328 
z
" transform="scale(0.015625)"/>
       <path id="DejaVuSerif-61" d="M 2547 1044 
L 2547 1747 
L 1806 1747 
Q 1378 1747 1168 1562 
Q 959 1378 959 997 
Q 959 650 1171 447 
Q 1384 244 1747 244 
Q 2106 244 2326 466 
Q 2547 688 2547 1044 
z
M 3122 2075 
L 3122 331 
L 3634 331 
L 3634 0 
L 2547 0 
L 2547 359 
Q 2356 128 2106 18 
Q 1856 -91 1522 -91 
Q 969 -91 644 203 
Q 319 497 319 997 
Q 319 1513 691 1797 
Q 1063 2081 1741 2081 
L 2547 2081 
L 2547 2309 
Q 2547 2688 2317 2895 
Q 2088 3103 1672 3103 
Q 1328 3103 1125 2947 
Q 922 2791 872 2484 
L 575 2484 
L 575 3156 
Q 875 3284 1158 3348 
Q 1441 3413 1709 3413 
Q 2400 3413 2761 3070 
Q 3122 2728 3122 2075 
z
" transform="scale(0.015625)"/>
       <path id="DejaVuSerif-6c" d="M 1313 331 
L 1856 331 
L 1856 0 
L 184 0 
L 184 331 
L 738 331 
L 738 4531 
L 184 4531 
L 184 4863 
L 1313 4863 
L 1313 331 
z
" transform="scale(0.015625)"/>
       <path id="DejaVuSerif-69" d="M 622 4353 
Q 622 4497 726 4603 
Q 831 4709 978 4709 
Q 1122 4709 1226 4603 
Q 1331 4497 1331 4353 
Q 1331 4206 1228 4103 
Q 1125 4000 978 4000 
Q 831 4000 726 4103 
Q 622 4206 622 4353 
z
M 1356 331 
L 1900 331 
L 1900 0 
L 231 0 
L 231 331 
L 781 331 
L 781 2988 
L 231 2988 
L 231 3322 
L 1356 3322 
L 1356 331 
z
" transform="scale(0.015625)"/>
       <path id="DejaVuSerif-79" d="M 1381 -609 
L 1600 -56 
L 359 2988 
L -19 2988 
L -19 3322 
L 1509 3322 
L 1509 2988 
L 978 2988 
L 1913 703 
L 2847 2988 
L 2350 2988 
L 2350 3322 
L 3597 3322 
L 3597 2988 
L 3225 2988 
L 1703 -750 
Q 1547 -1138 1356 -1280 
Q 1166 -1422 819 -1422 
Q 672 -1422 517 -1397 
Q 363 -1372 206 -1325 
L 206 -691 
L 500 -691 
Q 519 -903 608 -995 
Q 697 -1088 884 -1088 
Q 1056 -1088 1161 -992 
Q 1266 -897 1381 -609 
z
" transform="scale(0.015625)"/>
      </defs>
      <use xlink:href="#DejaVuSerif-4e"/>
      <use xlink:href="#DejaVuSerif-6f" transform="translate(87.5 0)"/>
      <use xlink:href="#DejaVuSerif-64" transform="translate(147.705078 0)"/>
      <use xlink:href="#DejaVuSerif-65" transform="translate(211.71875 0)"/>
      <use xlink:href="#DejaVuSerif-20" transform="translate(270.898438 0)"/>
      <use xlink:href="#DejaVuSerif-63" transform="translate(302.685547 0)"/>
      <use xlink:href="#DejaVuSerif-65" transform="translate(358.691406 0)"/>
      <use xlink:href="#DejaVuSerif-6e" transform="translate(417.871094 0)"/>
      <use xlink:href="#DejaVuSerif-74" transform="translate(482.275391 0)"/>
      <use xlink:href="#DejaVuSerif-72" transform="translate(522.460938 0)"/>
      <use xlink:href="#DejaVuSerif-61" transform="translate(570.263672 0)"/>
      <use xlink:href="#DejaVuSerif-6c" transform="translate(629.882812 0)"/>
      <use xlink:href="#DejaVuSerif-69" transform="translate(661.865234 0)"/>
      <use xlink:href="#DejaVuSerif-74" transform="translate(693.847656 0)"/>
      <use xlink:href="#DejaVuSerif-79" transform="translate(734.033203 0)"/>
     </g>
    </g>
   </g>
   <g id="matplotlib.axis_2">
    <g id="ytick_1">
     <g id="line2d_5">
      <defs>
       <path id="mcc4ca44eda" d="M 0 0 
L -3.5 0 
" style="stroke: #000000; stroke-width: 0.8"/>
      </defs>
      <g>
       <use xlink:href="#mcc4ca44eda" x="59.771352" y="72.377265" style="stroke: #000000; stroke-width: 0.8"/>
      </g>
     </g>
     <g id="text_6">
      <!-- $\mathdefault{10^{1}}$ -->
      <g transform="translate(28.131352 77.696171) scale(0.14 -0.14)">
       <use xlink:href="#DejaVuSerif-31" transform="translate(0 0.7125)"/>
       <use xlink:href="#DejaVuSerif-30" transform="translate(63.623047 0.7125)"/>
       <use xlink:href="#DejaVuSerif-31" transform="translate(128.154453 37.046875) scale(0.7)"/>
      </g>
     </g>
    </g>
    <g id="ytick_2">
     <g id="line2d_6">
      <g>
       <use xlink:href="#mcc4ca44eda" x="59.771352" y="22.033613" style="stroke: #000000; stroke-width: 0.8"/>
      </g>
     </g>
     <g id="text_7">
      <!-- $\mathdefault{10^{3}}$ -->
      <g transform="translate(28.131352 27.352519) scale(0.14 -0.14)">
       <defs>
        <path id="DejaVuSerif-33" d="M 622 4469 
Q 988 4606 1323 4678 
Q 1659 4750 1953 4750 
Q 2638 4750 3022 4454 
Q 3406 4159 3406 3634 
Q 3406 3213 3140 2930 
Q 2875 2647 2388 2547 
Q 2963 2466 3280 2130 
Q 3597 1794 3597 1259 
Q 3597 606 3158 257 
Q 2719 -91 1894 -91 
Q 1528 -91 1179 -12 
Q 831 66 488 225 
L 488 1131 
L 838 1131 
Q 869 681 1141 450 
Q 1413 219 1906 219 
Q 2384 219 2661 495 
Q 2938 772 2938 1253 
Q 2938 1803 2653 2086 
Q 2369 2369 1819 2369 
L 1522 2369 
L 1522 2688 
L 1678 2688 
Q 2225 2688 2498 2914 
Q 2772 3141 2772 3597 
Q 2772 4006 2547 4223 
Q 2322 4441 1900 4441 
Q 1478 4441 1245 4241 
Q 1013 4041 972 3647 
L 622 3647 
L 622 4469 
z
" transform="scale(0.015625)"/>
       </defs>
       <use xlink:href="#DejaVuSerif-31" transform="translate(0 0.7125)"/>
       <use xlink:href="#DejaVuSerif-30" transform="translate(63.623047 0.7125)"/>
       <use xlink:href="#DejaVuSerif-33" transform="translate(128.154453 37.046875) scale(0.7)"/>
      </g>
     </g>
    </g>
    <g id="text_8">
     <!-- Number -->
     <g transform="translate(21.219789 85.481406) rotate(-90) scale(0.14 -0.14)">
      <defs>
       <path id="DejaVuSerif-75" d="M 2266 3322 
L 3341 3322 
L 3341 331 
L 3884 331 
L 3884 0 
L 2766 0 
L 2766 588 
Q 2606 256 2353 82 
Q 2100 -91 1766 -91 
Q 1213 -91 952 223 
Q 691 538 691 1209 
L 691 2988 
L 172 2988 
L 172 3322 
L 1269 3322 
L 1269 1388 
Q 1269 781 1417 556 
Q 1566 331 1947 331 
Q 2347 331 2556 625 
Q 2766 919 2766 1478 
L 2766 2988 
L 2266 2988 
L 2266 3322 
z
" transform="scale(0.015625)"/>
       <path id="DejaVuSerif-6d" d="M 3316 2675 
Q 3481 3041 3739 3227 
Q 3997 3413 4341 3413 
Q 4863 3413 5119 3089 
Q 5375 2766 5375 2113 
L 5375 331 
L 5894 331 
L 5894 0 
L 4300 0 
L 4300 331 
L 4800 331 
L 4800 2047 
Q 4800 2556 4650 2772 
Q 4500 2988 4153 2988 
Q 3769 2988 3567 2697 
Q 3366 2406 3366 1850 
L 3366 331 
L 3866 331 
L 3866 0 
L 2291 0 
L 2291 331 
L 2791 331 
L 2791 2069 
Q 2791 2566 2641 2777 
Q 2491 2988 2144 2988 
Q 1759 2988 1557 2697 
Q 1356 2406 1356 1850 
L 1356 331 
L 1856 331 
L 1856 0 
L 263 0 
L 263 331 
L 781 331 
L 781 2994 
L 231 2994 
L 231 3322 
L 1356 3322 
L 1356 2731 
Q 1516 3063 1762 3238 
Q 2009 3413 2322 3413 
Q 2709 3413 2968 3220 
Q 3228 3028 3316 2675 
z
" transform="scale(0.015625)"/>
       <path id="DejaVuSerif-62" d="M 738 331 
L 738 4531 
L 184 4531 
L 184 4863 
L 1313 4863 
L 1313 2803 
Q 1481 3116 1742 3264 
Q 2003 3413 2388 3413 
Q 3000 3413 3387 2928 
Q 3775 2444 3775 1663 
Q 3775 881 3387 395 
Q 3000 -91 2388 -91 
Q 2003 -91 1742 57 
Q 1481 206 1313 519 
L 1313 0 
L 184 0 
L 184 331 
L 738 331 
z
M 1313 1497 
Q 1313 897 1542 583 
Q 1772 269 2209 269 
Q 2650 269 2876 622 
Q 3103 975 3103 1663 
Q 3103 2353 2876 2703 
Q 2650 3053 2209 3053 
Q 1772 3053 1542 2737 
Q 1313 2422 1313 1825 
L 1313 1497 
z
" transform="scale(0.015625)"/>
      </defs>
      <use xlink:href="#DejaVuSerif-4e"/>
      <use xlink:href="#DejaVuSerif-75" transform="translate(87.5 0)"/>
      <use xlink:href="#DejaVuSerif-6d" transform="translate(151.904297 0)"/>
      <use xlink:href="#DejaVuSerif-62" transform="translate(246.728516 0)"/>
      <use xlink:href="#DejaVuSerif-65" transform="translate(310.742188 0)"/>
      <use xlink:href="#DejaVuSerif-72" transform="translate(369.921875 0)"/>
     </g>
    </g>
   </g>
   <g id="patch_33">
    <path d="M 59.771352 101.68 
L 59.771352 10.8 
" style="fill: none; stroke: #000000; stroke-width: 0.8; stroke-linejoin: miter; stroke-linecap: square"/>
   </g>
   <g id="patch_34">
    <path d="M 59.771352 101.68 
L 385.2 101.68 
" style="fill: none; stroke: #000000; stroke-width: 0.8; stroke-linejoin: miter; stroke-linecap: square"/>
   </g>
  </g>
  <g id="axes_2">
   <g id="patch_35">
    <path d="M 59.771352 240.28 
L 385.2 240.28 
L 385.2 149.4 
L 59.771352 149.4 
z
" style="fill: #ffffff"/>
   </g>
   <g id="patch_36">
    <path d="M 74.563563 30702.245992 
L 84.425037 30702.245992 
L 84.425037 153.530909 
L 74.563563 153.530909 
z
" clip-path="url(#p884a77ac3f)" style="fill: #1f77b4"/>
   </g>
   <g id="patch_37">
    <path d="M 84.425037 30702.245992 
L 94.286511 30702.245992 
L 94.286511 236.149091 
L 84.425037 236.149091 
z
" clip-path="url(#p884a77ac3f)" style="fill: #1f77b4"/>
   </g>
   <g id="patch_38">
    <path d="M 94.286511 30702.245992 
L 104.147985 30702.245992 
L 104.147985 236.149091 
L 94.286511 236.149091 
z
" clip-path="url(#p884a77ac3f)" style="fill: #1f77b4"/>
   </g>
   <g id="patch_39">
    <path d="M 104.147985 30702.245992 
L 114.00946 30702.245992 
L 114.00946 30702.245992 
L 104.147985 30702.245992 
z
" clip-path="url(#p884a77ac3f)" style="fill: #1f77b4"/>
   </g>
   <g id="patch_40">
    <path d="M 114.00946 30702.245992 
L 123.870934 30702.245992 
L 123.870934 30702.245992 
L 114.00946 30702.245992 
z
" clip-path="url(#p884a77ac3f)" style="fill: #1f77b4"/>
   </g>
   <g id="patch_41">
    <path d="M 123.870934 30702.245992 
L 133.732408 30702.245992 
L 133.732408 236.149091 
L 123.870934 236.149091 
z
" clip-path="url(#p884a77ac3f)" style="fill: #1f77b4"/>
   </g>
   <g id="patch_42">
    <path d="M 133.732408 30702.245992 
L 143.593882 30702.245992 
L 143.593882 236.149091 
L 133.732408 236.149091 
z
" clip-path="url(#p884a77ac3f)" style="fill: #1f77b4"/>
   </g>
   <g id="patch_43">
    <path d="M 143.593882 30702.245992 
L 153.455356 30702.245992 
L 153.455356 30702.245992 
L 143.593882 30702.245992 
z
" clip-path="url(#p884a77ac3f)" style="fill: #1f77b4"/>
   </g>
   <g id="patch_44">
    <path d="M 153.455356 30702.245992 
L 163.316831 30702.245992 
L 163.316831 30702.245992 
L 153.455356 30702.245992 
z
" clip-path="url(#p884a77ac3f)" style="fill: #1f77b4"/>
   </g>
   <g id="patch_45">
    <path d="M 163.316831 30702.245992 
L 173.178305 30702.245992 
L 173.178305 30702.245992 
L 163.316831 30702.245992 
z
" clip-path="url(#p884a77ac3f)" style="fill: #1f77b4"/>
   </g>
   <g id="patch_46">
    <path d="M 173.178305 30702.245992 
L 183.039779 30702.245992 
L 183.039779 221.613069 
L 173.178305 221.613069 
z
" clip-path="url(#p884a77ac3f)" style="fill: #1f77b4"/>
   </g>
   <g id="patch_47">
    <path d="M 183.039779 30702.245992 
L 192.901253 30702.245992 
L 192.901253 30702.245992 
L 183.039779 30702.245992 
z
" clip-path="url(#p884a77ac3f)" style="fill: #1f77b4"/>
   </g>
   <g id="patch_48">
    <path d="M 192.901253 30702.245992 
L 202.762727 30702.245992 
L 202.762727 30702.245992 
L 192.901253 30702.245992 
z
" clip-path="url(#p884a77ac3f)" style="fill: #1f77b4"/>
   </g>
   <g id="patch_49">
    <path d="M 202.762727 30702.245992 
L 212.624202 30702.245992 
L 212.624202 30702.245992 
L 202.762727 30702.245992 
z
" clip-path="url(#p884a77ac3f)" style="fill: #1f77b4"/>
   </g>
   <g id="patch_50">
    <path d="M 212.624202 30702.245992 
L 222.485676 30702.245992 
L 222.485676 30702.245992 
L 212.624202 30702.245992 
z
" clip-path="url(#p884a77ac3f)" style="fill: #1f77b4"/>
   </g>
   <g id="patch_51">
    <path d="M 222.485676 30702.245992 
L 232.34715 30702.245992 
L 232.34715 30702.245992 
L 222.485676 30702.245992 
z
" clip-path="url(#p884a77ac3f)" style="fill: #1f77b4"/>
   </g>
   <g id="patch_52">
    <path d="M 232.34715 30702.245992 
L 242.208624 30702.245992 
L 242.208624 221.613069 
L 232.34715 221.613069 
z
" clip-path="url(#p884a77ac3f)" style="fill: #1f77b4"/>
   </g>
   <g id="patch_53">
    <path d="M 242.208624 30702.245992 
L 252.070098 30702.245992 
L 252.070098 236.149091 
L 242.208624 236.149091 
z
" clip-path="url(#p884a77ac3f)" style="fill: #1f77b4"/>
   </g>
   <g id="patch_54">
    <path d="M 252.070098 30702.245992 
L 261.931573 30702.245992 
L 261.931573 30702.245992 
L 252.070098 30702.245992 
z
" clip-path="url(#p884a77ac3f)" style="fill: #1f77b4"/>
   </g>
   <g id="patch_55">
    <path d="M 261.931573 30702.245992 
L 271.793047 30702.245992 
L 271.793047 30702.245992 
L 261.931573 30702.245992 
z
" clip-path="url(#p884a77ac3f)" style="fill: #1f77b4"/>
   </g>
   <g id="patch_56">
    <path d="M 271.793047 30702.245992 
L 281.654521 30702.245992 
L 281.654521 221.613069 
L 271.793047 221.613069 
z
" clip-path="url(#p884a77ac3f)" style="fill: #1f77b4"/>
   </g>
   <g id="patch_57">
    <path d="M 281.654521 30702.245992 
L 291.515995 30702.245992 
L 291.515995 226.977882 
L 281.654521 226.977882 
z
" clip-path="url(#p884a77ac3f)" style="fill: #1f77b4"/>
   </g>
   <g id="patch_58">
    <path d="M 291.515995 30702.245992 
L 301.377469 30702.245992 
L 301.377469 30702.245992 
L 291.515995 30702.245992 
z
" clip-path="url(#p884a77ac3f)" style="fill: #1f77b4"/>
   </g>
   <g id="patch_59">
    <path d="M 301.377469 30702.245992 
L 311.238944 30702.245992 
L 311.238944 30702.245992 
L 301.377469 30702.245992 
z
" clip-path="url(#p884a77ac3f)" style="fill: #1f77b4"/>
   </g>
   <g id="patch_60">
    <path d="M 311.238944 30702.245992 
L 321.100418 30702.245992 
L 321.100418 30702.245992 
L 311.238944 30702.245992 
z
" clip-path="url(#p884a77ac3f)" style="fill: #1f77b4"/>
   </g>
   <g id="patch_61">
    <path d="M 321.100418 30702.245992 
L 330.961892 30702.245992 
L 330.961892 30702.245992 
L 321.100418 30702.245992 
z
" clip-path="url(#p884a77ac3f)" style="fill: #1f77b4"/>
   </g>
   <g id="patch_62">
    <path d="M 330.961892 30702.245992 
L 340.823366 30702.245992 
L 340.823366 236.149091 
L 330.961892 236.149091 
z
" clip-path="url(#p884a77ac3f)" style="fill: #1f77b4"/>
   </g>
   <g id="patch_63">
    <path d="M 340.823366 30702.245992 
L 350.68484 30702.245992 
L 350.68484 30702.245992 
L 340.823366 30702.245992 
z
" clip-path="url(#p884a77ac3f)" style="fill: #1f77b4"/>
   </g>
   <g id="patch_64">
    <path d="M 350.68484 30702.245992 
L 360.546315 30702.245992 
L 360.546315 30702.245992 
L 350.68484 30702.245992 
z
" clip-path="url(#p884a77ac3f)" style="fill: #1f77b4"/>
   </g>
   <g id="patch_65">
    <path d="M 360.546315 30702.245992 
L 370.407789 30702.245992 
L 370.407789 236.149091 
L 360.546315 236.149091 
z
" clip-path="url(#p884a77ac3f)" style="fill: #1f77b4"/>
   </g>
   <g id="matplotlib.axis_3">
    <g id="xtick_5">
     <g id="line2d_7">
      <g>
       <use xlink:href="#m07ad39538e" x="74.563563" y="240.28" style="stroke: #000000; stroke-width: 0.8"/>
      </g>
     </g>
     <g id="text_9">
      <!-- 0.00 -->
      <g transform="translate(58.977625 257.917812) scale(0.14 -0.14)">
       <use xlink:href="#DejaVuSerif-30"/>
       <use xlink:href="#DejaVuSerif-2e" transform="translate(63.623047 0)"/>
       <use xlink:href="#DejaVuSerif-30" transform="translate(95.410156 0)"/>
       <use xlink:href="#DejaVuSerif-30" transform="translate(159.033203 0)"/>
      </g>
     </g>
    </g>
    <g id="xtick_6">
     <g id="line2d_8">
      <g>
       <use xlink:href="#m07ad39538e" x="130.316434" y="240.28" style="stroke: #000000; stroke-width: 0.8"/>
      </g>
     </g>
     <g id="text_10">
      <!-- 0.02 -->
      <g transform="translate(114.730497 257.917812) scale(0.14 -0.14)">
       <defs>
        <path id="DejaVuSerif-32" d="M 819 3553 
L 469 3553 
L 469 4384 
Q 803 4563 1142 4656 
Q 1481 4750 1806 4750 
Q 2534 4750 2956 4397 
Q 3378 4044 3378 3438 
Q 3378 2753 2422 1800 
Q 2347 1728 2309 1691 
L 1131 513 
L 3078 513 
L 3078 1088 
L 3444 1088 
L 3444 0 
L 434 0 
L 434 341 
L 1850 1753 
Q 2319 2222 2519 2614 
Q 2719 3006 2719 3438 
Q 2719 3909 2473 4175 
Q 2228 4441 1797 4441 
Q 1350 4441 1106 4219 
Q 863 3997 819 3553 
z
" transform="scale(0.015625)"/>
       </defs>
       <use xlink:href="#DejaVuSerif-30"/>
       <use xlink:href="#DejaVuSerif-2e" transform="translate(63.623047 0)"/>
       <use xlink:href="#DejaVuSerif-30" transform="translate(95.410156 0)"/>
       <use xlink:href="#DejaVuSerif-32" transform="translate(159.033203 0)"/>
      </g>
     </g>
    </g>
    <g id="xtick_7">
     <g id="line2d_9">
      <g>
       <use xlink:href="#m07ad39538e" x="186.069306" y="240.28" style="stroke: #000000; stroke-width: 0.8"/>
      </g>
     </g>
     <g id="text_11">
      <!-- 0.04 -->
      <g transform="translate(170.483369 257.917812) scale(0.14 -0.14)">
       <defs>
        <path id="DejaVuSerif-34" d="M 2234 1581 
L 2234 4063 
L 641 1581 
L 2234 1581 
z
M 3609 0 
L 1484 0 
L 1484 331 
L 2234 331 
L 2234 1247 
L 197 1247 
L 197 1588 
L 2241 4750 
L 2859 4750 
L 2859 1581 
L 3750 1581 
L 3750 1247 
L 2859 1247 
L 2859 331 
L 3609 331 
L 3609 0 
z
" transform="scale(0.015625)"/>
       </defs>
       <use xlink:href="#DejaVuSerif-30"/>
       <use xlink:href="#DejaVuSerif-2e" transform="translate(63.623047 0)"/>
       <use xlink:href="#DejaVuSerif-30" transform="translate(95.410156 0)"/>
       <use xlink:href="#DejaVuSerif-34" transform="translate(159.033203 0)"/>
      </g>
     </g>
    </g>
    <g id="xtick_8">
     <g id="line2d_10">
      <g>
       <use xlink:href="#m07ad39538e" x="241.822178" y="240.28" style="stroke: #000000; stroke-width: 0.8"/>
      </g>
     </g>
     <g id="text_12">
      <!-- 0.06 -->
      <g transform="translate(226.23624 257.917812) scale(0.14 -0.14)">
       <defs>
        <path id="DejaVuSerif-36" d="M 2094 219 
Q 2534 219 2771 542 
Q 3009 866 3009 1472 
Q 3009 2078 2771 2401 
Q 2534 2725 2094 2725 
Q 1647 2725 1412 2412 
Q 1178 2100 1178 1509 
Q 1178 888 1415 553 
Q 1653 219 2094 219 
z
M 1075 2569 
Q 1288 2803 1556 2918 
Q 1825 3034 2163 3034 
Q 2859 3034 3264 2615 
Q 3669 2197 3669 1472 
Q 3669 763 3233 336 
Q 2797 -91 2069 -91 
Q 1278 -91 853 498 
Q 428 1088 428 2181 
Q 428 3406 931 4078 
Q 1434 4750 2350 4750 
Q 2597 4750 2869 4703 
Q 3141 4656 3425 4563 
L 3425 3794 
L 3072 3794 
Q 3034 4109 2831 4275 
Q 2628 4441 2284 4441 
Q 1678 4441 1381 3981 
Q 1084 3522 1075 2569 
z
" transform="scale(0.015625)"/>
       </defs>
       <use xlink:href="#DejaVuSerif-30"/>
       <use xlink:href="#DejaVuSerif-2e" transform="translate(63.623047 0)"/>
       <use xlink:href="#DejaVuSerif-30" transform="translate(95.410156 0)"/>
       <use xlink:href="#DejaVuSerif-36" transform="translate(159.033203 0)"/>
      </g>
     </g>
    </g>
    <g id="xtick_9">
     <g id="line2d_11">
      <g>
       <use xlink:href="#m07ad39538e" x="297.575049" y="240.28" style="stroke: #000000; stroke-width: 0.8"/>
      </g>
     </g>
     <g id="text_13">
      <!-- 0.08 -->
      <g transform="translate(281.989112 257.917812) scale(0.14 -0.14)">
       <defs>
        <path id="DejaVuSerif-38" d="M 2981 1275 
Q 2981 1775 2732 2051 
Q 2484 2328 2034 2328 
Q 1584 2328 1336 2051 
Q 1088 1775 1088 1275 
Q 1088 772 1336 495 
Q 1584 219 2034 219 
Q 2484 219 2732 495 
Q 2981 772 2981 1275 
z
M 2853 3541 
Q 2853 3966 2637 4203 
Q 2422 4441 2034 4441 
Q 1650 4441 1433 4203 
Q 1216 3966 1216 3541 
Q 1216 3113 1433 2875 
Q 1650 2638 2034 2638 
Q 2422 2638 2637 2875 
Q 2853 3113 2853 3541 
z
M 2516 2484 
Q 3047 2413 3344 2092 
Q 3641 1772 3641 1275 
Q 3641 619 3225 264 
Q 2809 -91 2034 -91 
Q 1263 -91 845 264 
Q 428 619 428 1275 
Q 428 1772 725 2092 
Q 1022 2413 1556 2484 
Q 1084 2569 832 2842 
Q 581 3116 581 3541 
Q 581 4103 968 4426 
Q 1356 4750 2034 4750 
Q 2713 4750 3100 4426 
Q 3488 4103 3488 3541 
Q 3488 3116 3236 2842 
Q 2984 2569 2516 2484 
z
" transform="scale(0.015625)"/>
       </defs>
       <use xlink:href="#DejaVuSerif-30"/>
       <use xlink:href="#DejaVuSerif-2e" transform="translate(63.623047 0)"/>
       <use xlink:href="#DejaVuSerif-30" transform="translate(95.410156 0)"/>
       <use xlink:href="#DejaVuSerif-38" transform="translate(159.033203 0)"/>
      </g>
     </g>
    </g>
    <g id="xtick_10">
     <g id="line2d_12">
      <g>
       <use xlink:href="#m07ad39538e" x="353.327921" y="240.28" style="stroke: #000000; stroke-width: 0.8"/>
      </g>
     </g>
     <g id="text_14">
      <!-- 0.10 -->
      <g transform="translate(337.741983 257.917812) scale(0.14 -0.14)">
       <use xlink:href="#DejaVuSerif-30"/>
       <use xlink:href="#DejaVuSerif-2e" transform="translate(63.623047 0)"/>
       <use xlink:href="#DejaVuSerif-31" transform="translate(95.410156 0)"/>
       <use xlink:href="#DejaVuSerif-30" transform="translate(159.033203 0)"/>
      </g>
     </g>
    </g>
    <g id="text_15">
     <!-- Edge centrality -->
     <g transform="translate(167.89552 275.467187) scale(0.14 -0.14)">
      <defs>
       <path id="DejaVuSerif-45" d="M 353 0 
L 353 331 
L 947 331 
L 947 4331 
L 353 4331 
L 353 4666 
L 4109 4666 
L 4109 3628 
L 3725 3628 
L 3725 4281 
L 1581 4281 
L 1581 2719 
L 3109 2719 
L 3109 3303 
L 3494 3303 
L 3494 1753 
L 3109 1753 
L 3109 2338 
L 1581 2338 
L 1581 384 
L 3775 384 
L 3775 1038 
L 4159 1038 
L 4159 0 
L 353 0 
z
" transform="scale(0.015625)"/>
       <path id="DejaVuSerif-67" d="M 3359 2988 
L 3359 72 
Q 3359 -644 2965 -1033 
Q 2572 -1422 1844 -1422 
Q 1516 -1422 1216 -1362 
Q 916 -1303 641 -1184 
L 641 -488 
L 941 -488 
Q 997 -813 1206 -963 
Q 1416 -1113 1806 -1113 
Q 2313 -1113 2548 -827 
Q 2784 -541 2784 72 
L 2784 519 
Q 2616 206 2355 57 
Q 2094 -91 1709 -91 
Q 1097 -91 708 395 
Q 319 881 319 1663 
Q 319 2444 706 2928 
Q 1094 3413 1709 3413 
Q 2094 3413 2355 3264 
Q 2616 3116 2784 2803 
L 2784 3322 
L 3909 3322 
L 3909 2988 
L 3359 2988 
z
M 2784 1825 
Q 2784 2422 2554 2737 
Q 2325 3053 1888 3053 
Q 1444 3053 1217 2703 
Q 991 2353 991 1663 
Q 991 975 1217 622 
Q 1444 269 1888 269 
Q 2325 269 2554 583 
Q 2784 897 2784 1497 
L 2784 1825 
z
" transform="scale(0.015625)"/>
      </defs>
      <use xlink:href="#DejaVuSerif-45"/>
      <use xlink:href="#DejaVuSerif-64" transform="translate(72.998047 0)"/>
      <use xlink:href="#DejaVuSerif-67" transform="translate(137.011719 0)"/>
      <use xlink:href="#DejaVuSerif-65" transform="translate(201.025391 0)"/>
      <use xlink:href="#DejaVuSerif-20" transform="translate(260.205078 0)"/>
      <use xlink:href="#DejaVuSerif-63" transform="translate(291.992188 0)"/>
      <use xlink:href="#DejaVuSerif-65" transform="translate(347.998047 0)"/>
      <use xlink:href="#DejaVuSerif-6e" transform="translate(407.177734 0)"/>
      <use xlink:href="#DejaVuSerif-74" transform="translate(471.582031 0)"/>
      <use xlink:href="#DejaVuSerif-72" transform="translate(511.767578 0)"/>
      <use xlink:href="#DejaVuSerif-61" transform="translate(559.570312 0)"/>
      <use xlink:href="#DejaVuSerif-6c" transform="translate(619.189453 0)"/>
      <use xlink:href="#DejaVuSerif-69" transform="translate(651.171875 0)"/>
      <use xlink:href="#DejaVuSerif-74" transform="translate(683.154297 0)"/>
      <use xlink:href="#DejaVuSerif-79" transform="translate(723.339844 0)"/>
     </g>
    </g>
   </g>
   <g id="matplotlib.axis_4">
    <g id="ytick_3">
     <g id="line2d_13">
      <g>
       <use xlink:href="#mcc4ca44eda" x="59.771352" y="236.149091" style="stroke: #000000; stroke-width: 0.8"/>
      </g>
     </g>
     <g id="text_16">
      <!-- $\mathdefault{10^{0}}$ -->
      <g transform="translate(28.131352 241.467997) scale(0.14 -0.14)">
       <use xlink:href="#DejaVuSerif-31" transform="translate(0 0.7125)"/>
       <use xlink:href="#DejaVuSerif-30" transform="translate(63.623047 0.7125)"/>
       <use xlink:href="#DejaVuSerif-30" transform="translate(128.154453 37.046875) scale(0.7)"/>
      </g>
     </g>
    </g>
    <g id="ytick_4">
     <g id="line2d_14">
      <g>
       <use xlink:href="#mcc4ca44eda" x="59.771352" y="205.682994" style="stroke: #000000; stroke-width: 0.8"/>
      </g>
     </g>
     <g id="text_17">
      <!-- $\mathdefault{10^{1}}$ -->
      <g transform="translate(28.131352 211.0019) scale(0.14 -0.14)">
       <use xlink:href="#DejaVuSerif-31" transform="translate(0 0.7125)"/>
       <use xlink:href="#DejaVuSerif-30" transform="translate(63.623047 0.7125)"/>
       <use xlink:href="#DejaVuSerif-31" transform="translate(128.154453 37.046875) scale(0.7)"/>
      </g>
     </g>
    </g>
    <g id="ytick_5">
     <g id="line2d_15">
      <g>
       <use xlink:href="#mcc4ca44eda" x="59.771352" y="175.216897" style="stroke: #000000; stroke-width: 0.8"/>
      </g>
     </g>
     <g id="text_18">
      <!-- $\mathdefault{10^{2}}$ -->
      <g transform="translate(28.131352 180.535803) scale(0.14 -0.14)">
       <use xlink:href="#DejaVuSerif-31" transform="translate(0 0.7125)"/>
       <use xlink:href="#DejaVuSerif-30" transform="translate(63.623047 0.7125)"/>
       <use xlink:href="#DejaVuSerif-32" transform="translate(128.154453 37.046875) scale(0.7)"/>
      </g>
     </g>
    </g>
    <g id="ytick_6">
     <g id="line2d_16">
      <defs>
       <path id="m4f146451d3" d="M 0 0 
L -2 0 
" style="stroke: #000000; stroke-width: 0.6"/>
      </defs>
      <g>
       <use xlink:href="#m4f146451d3" x="59.771352" y="239.101561" style="stroke: #000000; stroke-width: 0.6"/>
      </g>
     </g>
    </g>
    <g id="ytick_7">
     <g id="line2d_17">
      <g>
       <use xlink:href="#m4f146451d3" x="59.771352" y="237.543143" style="stroke: #000000; stroke-width: 0.6"/>
      </g>
     </g>
    </g>
    <g id="ytick_8">
     <g id="line2d_18">
      <g>
       <use xlink:href="#m4f146451d3" x="59.771352" y="226.977882" style="stroke: #000000; stroke-width: 0.6"/>
      </g>
     </g>
    </g>
    <g id="ytick_9">
     <g id="line2d_19">
      <g>
       <use xlink:href="#m4f146451d3" x="59.771352" y="221.613069" style="stroke: #000000; stroke-width: 0.6"/>
      </g>
     </g>
    </g>
    <g id="ytick_10">
     <g id="line2d_20">
      <g>
       <use xlink:href="#m4f146451d3" x="59.771352" y="217.806673" style="stroke: #000000; stroke-width: 0.6"/>
      </g>
     </g>
    </g>
    <g id="ytick_11">
     <g id="line2d_21">
      <g>
       <use xlink:href="#m4f146451d3" x="59.771352" y="214.854203" style="stroke: #000000; stroke-width: 0.6"/>
      </g>
     </g>
    </g>
    <g id="ytick_12">
     <g id="line2d_22">
      <g>
       <use xlink:href="#m4f146451d3" x="59.771352" y="212.44186" style="stroke: #000000; stroke-width: 0.6"/>
      </g>
     </g>
    </g>
    <g id="ytick_13">
     <g id="line2d_23">
      <g>
       <use xlink:href="#m4f146451d3" x="59.771352" y="210.402252" style="stroke: #000000; stroke-width: 0.6"/>
      </g>
     </g>
    </g>
    <g id="ytick_14">
     <g id="line2d_24">
      <g>
       <use xlink:href="#m4f146451d3" x="59.771352" y="208.635464" style="stroke: #000000; stroke-width: 0.6"/>
      </g>
     </g>
    </g>
    <g id="ytick_15">
     <g id="line2d_25">
      <g>
       <use xlink:href="#m4f146451d3" x="59.771352" y="207.077046" style="stroke: #000000; stroke-width: 0.6"/>
      </g>
     </g>
    </g>
    <g id="ytick_16">
     <g id="line2d_26">
      <g>
       <use xlink:href="#m4f146451d3" x="59.771352" y="196.511785" style="stroke: #000000; stroke-width: 0.6"/>
      </g>
     </g>
    </g>
    <g id="ytick_17">
     <g id="line2d_27">
      <g>
       <use xlink:href="#m4f146451d3" x="59.771352" y="191.146972" style="stroke: #000000; stroke-width: 0.6"/>
      </g>
     </g>
    </g>
    <g id="ytick_18">
     <g id="line2d_28">
      <g>
       <use xlink:href="#m4f146451d3" x="59.771352" y="187.340576" style="stroke: #000000; stroke-width: 0.6"/>
      </g>
     </g>
    </g>
    <g id="ytick_19">
     <g id="line2d_29">
      <g>
       <use xlink:href="#m4f146451d3" x="59.771352" y="184.388106" style="stroke: #000000; stroke-width: 0.6"/>
      </g>
     </g>
    </g>
    <g id="ytick_20">
     <g id="line2d_30">
      <g>
       <use xlink:href="#m4f146451d3" x="59.771352" y="181.975763" style="stroke: #000000; stroke-width: 0.6"/>
      </g>
     </g>
    </g>
    <g id="ytick_21">
     <g id="line2d_31">
      <g>
       <use xlink:href="#m4f146451d3" x="59.771352" y="179.936155" style="stroke: #000000; stroke-width: 0.6"/>
      </g>
     </g>
    </g>
    <g id="ytick_22">
     <g id="line2d_32">
      <g>
       <use xlink:href="#m4f146451d3" x="59.771352" y="178.169367" style="stroke: #000000; stroke-width: 0.6"/>
      </g>
     </g>
    </g>
    <g id="ytick_23">
     <g id="line2d_33">
      <g>
       <use xlink:href="#m4f146451d3" x="59.771352" y="176.610949" style="stroke: #000000; stroke-width: 0.6"/>
      </g>
     </g>
    </g>
    <g id="ytick_24">
     <g id="line2d_34">
      <g>
       <use xlink:href="#m4f146451d3" x="59.771352" y="166.045688" style="stroke: #000000; stroke-width: 0.6"/>
      </g>
     </g>
    </g>
    <g id="ytick_25">
     <g id="line2d_35">
      <g>
       <use xlink:href="#m4f146451d3" x="59.771352" y="160.680875" style="stroke: #000000; stroke-width: 0.6"/>
      </g>
     </g>
    </g>
    <g id="ytick_26">
     <g id="line2d_36">
      <g>
       <use xlink:href="#m4f146451d3" x="59.771352" y="156.874479" style="stroke: #000000; stroke-width: 0.6"/>
      </g>
     </g>
    </g>
    <g id="ytick_27">
     <g id="line2d_37">
      <g>
       <use xlink:href="#m4f146451d3" x="59.771352" y="153.922009" style="stroke: #000000; stroke-width: 0.6"/>
      </g>
     </g>
    </g>
    <g id="ytick_28">
     <g id="line2d_38">
      <g>
       <use xlink:href="#m4f146451d3" x="59.771352" y="151.509666" style="stroke: #000000; stroke-width: 0.6"/>
      </g>
     </g>
    </g>
    <g id="ytick_29">
     <g id="line2d_39">
      <g>
       <use xlink:href="#m4f146451d3" x="59.771352" y="149.470058" style="stroke: #000000; stroke-width: 0.6"/>
      </g>
     </g>
    </g>
    <g id="text_19">
     <!-- Number -->
     <g transform="translate(21.219789 224.081406) rotate(-90) scale(0.14 -0.14)">
      <use xlink:href="#DejaVuSerif-4e"/>
      <use xlink:href="#DejaVuSerif-75" transform="translate(87.5 0)"/>
      <use xlink:href="#DejaVuSerif-6d" transform="translate(151.904297 0)"/>
      <use xlink:href="#DejaVuSerif-62" transform="translate(246.728516 0)"/>
      <use xlink:href="#DejaVuSerif-65" transform="translate(310.742188 0)"/>
      <use xlink:href="#DejaVuSerif-72" transform="translate(369.921875 0)"/>
     </g>
    </g>
   </g>
   <g id="patch_66">
    <path d="M 59.771352 240.28 
L 59.771352 149.4 
" style="fill: none; stroke: #000000; stroke-width: 0.8; stroke-linejoin: miter; stroke-linecap: square"/>
   </g>
   <g id="patch_67">
    <path d="M 59.771352 240.28 
L 385.2 240.28 
" style="fill: none; stroke: #000000; stroke-width: 0.8; stroke-linejoin: miter; stroke-linecap: square"/>
   </g>
  </g>
 </g>
 <defs>
  <clipPath id="p31a86f1b7c">
   <rect x="59.771352" y="10.8" width="325.428648" height="90.88"/>
  </clipPath>
  <clipPath id="p884a77ac3f">
   <rect x="59.771352" y="149.4" width="325.428648" height="90.88"/>
  </clipPath>
 </defs>
</svg>
