<?xml version="1.0" encoding="utf-8" standalone="no"?>
<!DOCTYPE svg PUBLIC "-//W3C//DTD SVG 1.1//EN"
  "http://www.w3.org/Graphics/SVG/1.1/DTD/svg11.dtd">
<svg xmlns:xlink="http://www.w3.org/1999/xlink" width="1072.8pt" height="352.8pt" viewBox="0 0 1072.8 352.8" xmlns="http://www.w3.org/2000/svg" version="1.1">
 <metadata>
  <rdf:RDF xmlns:dc="http://purl.org/dc/elements/1.1/" xmlns:cc="http://creativecommons.org/ns#" xmlns:rdf="http://www.w3.org/1999/02/22-rdf-syntax-ns#">
   <cc:Work>
    <dc:type rdf:resource="http://purl.org/dc/dcmitype/StillImage"/>
    <dc:date>2025-10-02T10:46:51.106483</dc:date>
    <dc:format>image/svg+xml</dc:format>
    <dc:creator>
     <cc:Agent>
      <dc:title>Matplotlib v3.10.5, https://matplotlib.org/</dc:title>
     </cc:Agent>
    </dc:creator>
   </cc:Work>
  </rdf:RDF>
 </metadata>
 <defs>
  <style type="text/css">*{stroke-linejoin: round; stroke-linecap: butt}</style>
 </defs>
 <g id="figure_1">
  <g id="patch_1">
   <path d="M 0 352.8 
L 1072.8 352.8 
L 1072.8 0 
L 0 0 
z
" style="fill: #ffffff"/>
  </g>
  <g id="axes_1">
   <g id="patch_2">
    <path d="M 226.237695 22.581818 
L 337.090909 215.577471 
L 117.961857 330.218182 
L 22.909091 114.166895 
z
" clip-path="url(#pc9432ddac0)" style="fill: #add8e6; opacity: 0.3; stroke: #add8e6; stroke-linejoin: miter"/>
   </g>
   <g id="PathCollection_1">
    <defs>
     <path id="m054e455942" d="M 0 15 
C 3.978047 15 7.793698 13.419505 10.606602 10.606602 
C 13.419505 7.793698 15 3.978047 15 0 
C 15 -3.978047 13.419505 -7.793698 10.606602 -10.606602 
C 7.793698 -13.419505 3.978047 -15 0 -15 
C -3.978047 -15 -7.793698 -13.419505 -10.606602 -10.606602 
C -13.419505 -7.793698 -15 -3.978047 -15 0 
C -15 3.978047 -13.419505 7.793698 -10.606602 10.606602 
C -7.793698 13.419505 -3.978047 15 0 15 
z
" style="stroke: #000000"/>
    </defs>
    <g clip-path="url(#pc9432ddac0)">
     <use xlink:href="#m054e455942" x="226.237695" y="22.581818" style="fill: #add8e6; stroke: #000000"/>
     <use xlink:href="#m054e455942" x="337.090909" y="215.577471" style="fill: #add8e6; stroke: #000000"/>
     <use xlink:href="#m054e455942" x="117.961857" y="330.218182" style="fill: #add8e6; stroke: #000000"/>
     <use xlink:href="#m054e455942" x="22.909091" y="114.166895" style="fill: #add8e6; stroke: #000000"/>
    </g>
   </g>
  </g>
  <g id="axes_2">
   <g id="LineCollection_1">
    <path d="M 579.112843 31.938117 
L 688.044335 219.064096 
" clip-path="url(#pf9374ca807)" style="fill: none; stroke: #000000; stroke-width: 2"/>
   </g>
   <g id="patch_3">
    <path d="M 579.112843 31.938117 
L 472.714047 330.218182 
L 379.309091 120.737771 
z
" clip-path="url(#pf9374ca807)" style="fill: #ffdab9; opacity: 0.3; stroke: #ffdab9; stroke-linejoin: miter"/>
   </g>
   <g id="PathCollection_2">
    <g clip-path="url(#pf9374ca807)">
     <use xlink:href="#m054e455942" x="579.112843" y="31.938117" style="fill: #add8e6; stroke: #000000"/>
     <use xlink:href="#m054e455942" x="688.044335" y="219.064096" style="fill: #add8e6; stroke: #000000"/>
     <use xlink:href="#m054e455942" x="472.714047" y="330.218182" style="fill: #add8e6; stroke: #000000"/>
     <use xlink:href="#m054e455942" x="379.309091" y="120.737771" style="fill: #add8e6; stroke: #000000"/>
    </g>
   </g>
  </g>
  <g id="axes_3">
   <g id="LineCollection_2">
    <path d="M 935.512843 31.938117 
L 1044.444335 219.064096 
" clip-path="url(#p194fdd1742)" style="fill: none; stroke: #000000; stroke-width: 2"/>
   </g>
   <g id="patch_4">
    <path d="M 935.512843 31.938117 
L 1044.444335 219.064096 
L 829.114047 330.218182 
L 735.709091 120.737771 
z
" clip-path="url(#p194fdd1742)" style="fill: #add8e6; opacity: 0.3; stroke: #add8e6; stroke-linejoin: miter"/>
   </g>
   <g id="PathCollection_3">
    <g clip-path="url(#p194fdd1742)">
     <use xlink:href="#m054e455942" x="935.512843" y="31.938117" style="fill: #add8e6; stroke: #000000"/>
     <use xlink:href="#m054e455942" x="1044.444335" y="219.064096" style="fill: #add8e6; stroke: #000000"/>
     <use xlink:href="#m054e455942" x="829.114047" y="330.218182" style="fill: #add8e6; stroke: #000000"/>
     <use xlink:href="#m054e455942" x="735.709091" y="120.737771" style="fill: #add8e6; stroke: #000000"/>
    </g>
   </g>
  </g>
 </g>
 <defs>
  <clipPath id="pc9432ddac0">
   <rect x="7.2" y="7.2" width="345.6" height="338.4"/>
  </clipPath>
  <clipPath id="pf9374ca807">
   <rect x="363.6" y="7.2" width="345.6" height="338.4"/>
  </clipPath>
  <clipPath id="p194fdd1742">
   <rect x="720" y="7.2" width="345.6" height="338.4"/>
  </clipPath>
 </defs>
</svg>
