<?xml version="1.0" encoding="utf-8" standalone="no"?>
<!DOCTYPE svg PUBLIC "-//W3C//DTD SVG 1.1//EN"
  "http://www.w3.org/Graphics/SVG/1.1/DTD/svg11.dtd">
<svg xmlns:xlink="http://www.w3.org/1999/xlink" width="252pt" height="288pt" viewBox="0 0 252 288" xmlns="http://www.w3.org/2000/svg" version="1.1">
 <metadata>
  <rdf:RDF xmlns:dc="http://purl.org/dc/elements/1.1/" xmlns:cc="http://creativecommons.org/ns#" xmlns:rdf="http://www.w3.org/1999/02/22-rdf-syntax-ns#">
   <cc:Work>
    <dc:type rdf:resource="http://purl.org/dc/dcmitype/StillImage"/>
    <dc:date>2025-10-02T10:35:43.693131</dc:date>
    <dc:format>image/svg+xml</dc:format>
    <dc:creator>
     <cc:Agent>
      <dc:title>Matplotlib v3.10.5, https://matplotlib.org/</dc:title>
     </cc:Agent>
    </dc:creator>
   </cc:Work>
  </rdf:RDF>
 </metadata>
 <defs>
  <style type="text/css">*{stroke-linejoin: round; stroke-linecap: butt}</style>
 </defs>
 <g id="figure_1">
  <g id="patch_1">
   <path d="M 0 288 
L 252 288 
L 252 0 
L 0 0 
z
" style="fill: #ffffff"/>
  </g>
  <g id="axes_1">
   <g id="patch_2">
    <path d="M 67.534728 114.775073 
L 241.2 114.775073 
L 241.2 10.8 
L 67.534728 10.8 
z
" style="fill: #ffffff"/>
   </g>
   <g id="matplotlib.axis_1"/>
   <g id="matplotlib.axis_2">
    <g id="ytick_1">
     <g id="line2d_1">
      <defs>
       <path id="m8b715b4fd6" d="M 0 0 
L -3.5 0 
" style="stroke: #000000; stroke-width: 0.8"/>
      </defs>
      <g>
       <use xlink:href="#m8b715b4fd6" x="67.534728" y="110.048933" style="stroke: #000000; stroke-width: 0.8"/>
      </g>
     </g>
     <g id="text_1">
      <!-- $\mathdefault{10^{0}}$ -->
      <g transform="translate(35.894728 115.36784) scale(0.14 -0.14)">
       <defs>
        <path id="DejaVuSerif-31" d="M 909 0 
L 909 331 
L 1722 331 
L 1722 4213 
L 781 3603 
L 781 4013 
L 1919 4750 
L 2350 4750 
L 2350 331 
L 3163 331 
L 3163 0 
L 909 0 
z
" transform="scale(0.015625)"/>
        <path id="DejaVuSerif-30" d="M 2034 219 
Q 2513 219 2750 744 
Q 2988 1269 2988 2328 
Q 2988 3391 2750 3916 
Q 2513 4441 2034 4441 
Q 1556 4441 1318 3916 
Q 1081 3391 1081 2328 
Q 1081 1269 1318 744 
Q 1556 219 2034 219 
z
M 2034 -91 
Q 1275 -91 848 546 
Q 422 1184 422 2328 
Q 422 3475 848 4112 
Q 1275 4750 2034 4750 
Q 2797 4750 3222 4112 
Q 3647 3475 3647 2328 
Q 3647 1184 3222 546 
Q 2797 -91 2034 -91 
z
" transform="scale(0.015625)"/>
       </defs>
       <use xlink:href="#DejaVuSerif-31" transform="translate(0 0.7125)"/>
       <use xlink:href="#DejaVuSerif-30" transform="translate(63.623047 0.7125)"/>
       <use xlink:href="#DejaVuSerif-30" transform="translate(128.154453 37.046875) scale(0.7)"/>
      </g>
     </g>
    </g>
    <g id="ytick_2">
     <g id="line2d_2">
      <g>
       <use xlink:href="#m8b715b4fd6" x="67.534728" y="22.461428" style="stroke: #000000; stroke-width: 0.8"/>
      </g>
     </g>
     <g id="text_2">
      <!-- $\mathdefault{10^{1}}$ -->
      <g transform="translate(35.894728 27.780334) scale(0.14 -0.14)">
       <use xlink:href="#DejaVuSerif-31" transform="translate(0 0.7125)"/>
       <use xlink:href="#DejaVuSerif-30" transform="translate(63.623047 0.7125)"/>
       <use xlink:href="#DejaVuSerif-31" transform="translate(128.154453 37.046875) scale(0.7)"/>
      </g>
     </g>
    </g>
    <g id="ytick_3">
     <g id="line2d_3">
      <defs>
       <path id="mcc5c2c9c69" d="M 0 0 
L -2 0 
" style="stroke: #000000; stroke-width: 0.6"/>
      </defs>
      <g>
       <use xlink:href="#mcc5c2c9c69" x="67.534728" y="114.056718" style="stroke: #000000; stroke-width: 0.6"/>
      </g>
     </g>
    </g>
    <g id="ytick_4">
     <g id="line2d_4">
      <g>
       <use xlink:href="#mcc5c2c9c69" x="67.534728" y="83.682467" style="stroke: #000000; stroke-width: 0.6"/>
      </g>
     </g>
    </g>
    <g id="ytick_5">
     <g id="line2d_5">
      <g>
       <use xlink:href="#mcc5c2c9c69" x="67.534728" y="68.259073" style="stroke: #000000; stroke-width: 0.6"/>
      </g>
     </g>
    </g>
    <g id="ytick_6">
     <g id="line2d_6">
      <g>
       <use xlink:href="#mcc5c2c9c69" x="67.534728" y="57.316" style="stroke: #000000; stroke-width: 0.6"/>
      </g>
     </g>
    </g>
    <g id="ytick_7">
     <g id="line2d_7">
      <g>
       <use xlink:href="#mcc5c2c9c69" x="67.534728" y="48.827894" style="stroke: #000000; stroke-width: 0.6"/>
      </g>
     </g>
    </g>
    <g id="ytick_8">
     <g id="line2d_8">
      <g>
       <use xlink:href="#mcc5c2c9c69" x="67.534728" y="41.892606" style="stroke: #000000; stroke-width: 0.6"/>
      </g>
     </g>
    </g>
    <g id="ytick_9">
     <g id="line2d_9">
      <g>
       <use xlink:href="#mcc5c2c9c69" x="67.534728" y="36.028904" style="stroke: #000000; stroke-width: 0.6"/>
      </g>
     </g>
    </g>
    <g id="ytick_10">
     <g id="line2d_10">
      <g>
       <use xlink:href="#mcc5c2c9c69" x="67.534728" y="30.949534" style="stroke: #000000; stroke-width: 0.6"/>
      </g>
     </g>
    </g>
    <g id="ytick_11">
     <g id="line2d_11">
      <g>
       <use xlink:href="#mcc5c2c9c69" x="67.534728" y="26.469212" style="stroke: #000000; stroke-width: 0.6"/>
      </g>
     </g>
    </g>
    <g id="text_3">
     <!-- Deg. -->
     <g transform="translate(20.784103 79.248474) rotate(-90) scale(0.14 -0.14)">
      <defs>
       <path id="DejaVuSerif-44" d="M 1581 331 
L 2163 331 
Q 3072 331 3558 850 
Q 4044 1369 4044 2338 
Q 4044 3306 3559 3818 
Q 3075 4331 2163 4331 
L 1581 4331 
L 1581 331 
z
M 353 0 
L 353 331 
L 947 331 
L 947 4331 
L 353 4331 
L 353 4666 
L 2209 4666 
Q 3416 4666 4089 4050 
Q 4763 3434 4763 2338 
Q 4763 1238 4088 619 
Q 3413 0 2209 0 
L 353 0 
z
" transform="scale(0.015625)"/>
       <path id="DejaVuSerif-65" d="M 3469 1600 
L 991 1600 
L 991 1575 
Q 991 903 1244 561 
Q 1497 219 1991 219 
Q 2369 219 2611 417 
Q 2853 616 2950 1006 
L 3413 1006 
Q 3275 459 2904 184 
Q 2534 -91 1931 -91 
Q 1203 -91 761 389 
Q 319 869 319 1663 
Q 319 2450 753 2931 
Q 1188 3413 1894 3413 
Q 2647 3413 3050 2948 
Q 3453 2484 3469 1600 
z
M 2791 1931 
Q 2772 2513 2545 2808 
Q 2319 3103 1894 3103 
Q 1497 3103 1269 2806 
Q 1041 2509 991 1931 
L 2791 1931 
z
" transform="scale(0.015625)"/>
       <path id="DejaVuSerif-67" d="M 3359 2988 
L 3359 72 
Q 3359 -644 2965 -1033 
Q 2572 -1422 1844 -1422 
Q 1516 -1422 1216 -1362 
Q 916 -1303 641 -1184 
L 641 -488 
L 941 -488 
Q 997 -813 1206 -963 
Q 1416 -1113 1806 -1113 
Q 2313 -1113 2548 -827 
Q 2784 -541 2784 72 
L 2784 519 
Q 2616 206 2355 57 
Q 2094 -91 1709 -91 
Q 1097 -91 708 395 
Q 319 881 319 1663 
Q 319 2444 706 2928 
Q 1094 3413 1709 3413 
Q 2094 3413 2355 3264 
Q 2616 3116 2784 2803 
L 2784 3322 
L 3909 3322 
L 3909 2988 
L 3359 2988 
z
M 2784 1825 
Q 2784 2422 2554 2737 
Q 2325 3053 1888 3053 
Q 1444 3053 1217 2703 
Q 991 2353 991 1663 
Q 991 975 1217 622 
Q 1444 269 1888 269 
Q 2325 269 2554 583 
Q 2784 897 2784 1497 
L 2784 1825 
z
" transform="scale(0.015625)"/>
       <path id="DejaVuSerif-2e" d="M 603 325 
Q 603 500 722 622 
Q 841 744 1019 744 
Q 1191 744 1312 622 
Q 1434 500 1434 325 
Q 1434 153 1312 31 
Q 1191 -91 1019 -91 
Q 841 -91 722 29 
Q 603 150 603 325 
z
" transform="scale(0.015625)"/>
      </defs>
      <use xlink:href="#DejaVuSerif-44"/>
      <use xlink:href="#DejaVuSerif-65" transform="translate(80.175781 0)"/>
      <use xlink:href="#DejaVuSerif-67" transform="translate(139.355469 0)"/>
      <use xlink:href="#DejaVuSerif-2e" transform="translate(203.369141 0)"/>
     </g>
    </g>
   </g>
   <g id="line2d_12">
    <path d="M 75.428604 15.52614 
L 76.904095 30.949534 
L 78.379586 36.028904 
L 79.855077 57.316 
L 81.330567 57.316 
L 82.806058 57.316 
L 84.281549 57.316 
L 85.75704 57.316 
L 87.232531 68.259073 
L 88.708022 68.259073 
L 90.183512 83.682467 
L 91.659003 83.682467 
L 93.134494 83.682467 
L 94.609985 83.682467 
L 96.085476 83.682467 
L 97.560967 83.682467 
L 99.036457 83.682467 
L 100.511948 83.682467 
L 101.987439 83.682467 
L 103.46293 83.682467 
L 104.938421 83.682467 
L 106.413912 83.682467 
L 107.889403 83.682467 
L 109.364893 83.682467 
L 110.840384 83.682467 
L 112.315875 83.682467 
L 113.791366 83.682467 
L 115.266857 83.682467 
L 116.742348 110.048933 
L 118.217838 110.048933 
L 119.693329 110.048933 
L 121.16882 110.048933 
L 122.644311 110.048933 
L 124.119802 110.048933 
L 125.595293 110.048933 
L 127.070783 110.048933 
L 128.546274 110.048933 
L 130.021765 110.048933 
L 131.497256 110.048933 
L 132.972747 110.048933 
L 134.448238 110.048933 
L 135.923729 110.048933 
L 137.399219 110.048933 
L 138.87471 110.048933 
L 140.350201 110.048933 
L 141.825692 110.048933 
L 143.301183 110.048933 
L 144.776674 110.048933 
L 146.252164 110.048933 
L 147.727655 110.048933 
L 149.203146 110.048933 
L 150.678637 110.048933 
L 152.154128 110.048933 
L 153.629619 110.048933 
L 155.105109 110.048933 
L 156.5806 110.048933 
L 158.056091 110.048933 
L 159.531582 110.048933 
L 161.007073 110.048933 
L 162.482564 110.048933 
L 163.958054 110.048933 
L 165.433545 110.048933 
L 166.909036 110.048933 
L 168.384527 110.048933 
L 169.860018 110.048933 
L 171.335509 110.048933 
L 172.811 110.048933 
L 174.28649 110.048933 
L 175.761981 110.048933 
L 177.237472 110.048933 
L 178.712963 110.048933 
L 180.188454 110.048933 
L 181.663945 110.048933 
L 183.139435 110.048933 
L 184.614926 110.048933 
L 186.090417 110.048933 
L 187.565908 110.048933 
L 189.041399 110.048933 
L 190.51689 110.048933 
L 191.99238 110.048933 
L 193.467871 110.048933 
L 194.943362 110.048933 
L 196.418853 110.048933 
L 197.894344 110.048933 
L 199.369835 110.048933 
L 200.845326 110.048933 
L 202.320816 110.048933 
L 203.796307 110.048933 
L 205.271798 110.048933 
L 206.747289 110.048933 
L 208.22278 110.048933 
L 209.698271 110.048933 
L 211.173761 110.048933 
L 212.649252 110.048933 
L 214.124743 110.048933 
L 215.600234 110.048933 
L 217.075725 110.048933 
L 218.551216 110.048933 
L 220.026706 110.048933 
L 221.502197 110.048933 
L 222.977688 110.048933 
L 224.453179 110.048933 
L 225.92867 110.048933 
L 227.404161 110.048933 
L 228.879651 110.048933 
L 230.355142 110.048933 
L 231.830633 110.048933 
L 233.306124 110.048933 
" clip-path="url(#p1413fbb3ef)" style="fill: none; stroke: #800000; stroke-width: 1.5; stroke-linecap: square"/>
   </g>
   <g id="line2d_13">
    <path d="M 75.428604 90.791052 
L 76.904095 80.510733 
L 78.379586 83.682467 
L 79.855077 89.864487 
L 81.330567 74.255084 
L 82.806058 75.784121 
L 84.281549 80.637741 
L 85.75704 89.864487 
L 87.232531 93.489969 
L 88.708022 91.427121 
L 90.183512 101.560827 
L 91.659003 65.214347 
L 93.134494 65.214347 
L 94.609985 104.969563 
L 96.085476 68.259073 
L 97.560967 58.699381 
L 99.036457 58.699381 
L 100.511948 58.699381 
L 101.987439 68.259073 
L 103.46293 83.682467 
L 104.938421 92.170573 
L 106.413912 81.058063 
L 107.889403 60.281562 
L 109.364893 94.625539 
L 110.840384 94.625539 
L 112.315875 94.625539 
L 113.791366 81.376381 
L 115.266857 94.625539 
L 116.742348 50.779028 
L 118.217838 101.560827 
L 119.693329 101.560827 
L 121.16882 57.316 
L 122.644311 100.068919 
L 124.119802 50.779028 
L 125.595293 100.068919 
L 127.070783 100.068919 
L 128.546274 100.068919 
L 130.021765 100.068919 
L 131.497256 100.068919 
L 132.972747 66.202422 
L 134.448238 101.560827 
L 135.923729 101.560827 
L 137.399219 52.835679 
L 138.87471 52.835679 
L 140.350201 52.835679 
L 141.825692 52.835679 
L 143.301183 64.251288 
L 144.776674 26.469212 
L 146.252164 66.202422 
L 147.727655 66.202422 
L 149.203146 100.068919 
L 150.678637 66.202422 
L 152.154128 66.202422 
L 153.629619 92.170573 
L 155.105109 92.170573 
L 156.5806 92.170573 
L 158.056091 92.170573 
L 159.531582 100.068919 
L 161.007073 92.170573 
L 162.482564 100.068919 
L 163.958054 54.271274 
L 165.433545 90.617755 
L 166.909036 90.617755 
L 168.384527 47.335986 
L 169.860018 47.335986 
L 171.335509 47.335986 
L 172.811 76.297011 
L 174.28649 76.297011 
L 175.761981 76.297011 
L 177.237472 76.297011 
L 178.712963 65.804107 
L 180.188454 65.804107 
L 181.663945 65.804107 
L 183.139435 65.804107 
L 184.614926 65.804107 
L 186.090417 90.617755 
L 187.565908 90.617755 
L 189.041399 90.617755 
L 190.51689 57.316 
L 191.99238 57.316 
L 193.467871 83.682467 
L 194.943362 92.170573 
L 196.418853 90.617755 
L 197.894344 54.271274 
L 199.369835 80.056985 
L 200.845326 88.761837 
L 202.320816 80.056985 
L 203.796307 92.170573 
L 205.271798 26.469212 
L 206.747289 45.202412 
L 208.22278 45.202412 
L 209.698271 45.202412 
L 211.173761 63.179703 
L 212.649252 63.179703 
L 214.124743 63.179703 
L 215.600234 63.179703 
L 217.075725 63.179703 
L 218.551216 63.179703 
L 220.026706 92.170573 
L 221.502197 92.170573 
L 222.977688 92.170573 
L 224.453179 57.316 
L 225.92867 83.682467 
L 227.404161 83.682467 
L 228.879651 83.682467 
L 230.355142 88.761837 
L 231.830633 88.761837 
L 233.306124 26.469212 
" clip-path="url(#p1413fbb3ef)" style="fill: none; stroke-dasharray: 5.55,2.4; stroke-dashoffset: 0; stroke: #008080; stroke-width: 1.5"/>
   </g>
   <g id="patch_3">
    <path d="M 67.534728 114.775073 
L 67.534728 10.8 
" style="fill: none; stroke: #000000; stroke-width: 0.8; stroke-linejoin: miter; stroke-linecap: square"/>
   </g>
   <g id="patch_4">
    <path d="M 67.534728 114.775073 
L 241.2 114.775073 
" style="fill: none; stroke: #000000; stroke-width: 0.8; stroke-linejoin: miter; stroke-linecap: square"/>
   </g>
  </g>
  <g id="axes_2">
   <g id="patch_5">
    <path d="M 67.534728 233.56 
L 241.2 233.56 
L 241.2 129.584927 
L 67.534728 129.584927 
z
" style="fill: #ffffff"/>
   </g>
   <g id="matplotlib.axis_3">
    <g id="xtick_1">
     <g id="line2d_14">
      <defs>
       <path id="meb08c17d42" d="M 0 0 
L 0 3.5 
" style="stroke: #000000; stroke-width: 0.8"/>
      </defs>
      <g>
       <use xlink:href="#meb08c17d42" x="75.428604" y="233.56" style="stroke: #000000; stroke-width: 0.8"/>
      </g>
     </g>
     <g id="text_4">
      <!-- 0 -->
      <g transform="translate(70.974854 251.197813) scale(0.14 -0.14)">
       <use xlink:href="#DejaVuSerif-30"/>
      </g>
     </g>
    </g>
    <g id="xtick_2">
     <g id="line2d_15">
      <g>
       <use xlink:href="#meb08c17d42" x="149.203146" y="233.56" style="stroke: #000000; stroke-width: 0.8"/>
      </g>
     </g>
     <g id="text_5">
      <!-- 50 -->
      <g transform="translate(140.295646 251.197813) scale(0.14 -0.14)">
       <defs>
        <path id="DejaVuSerif-35" d="M 3219 4666 
L 3219 4153 
L 1081 4153 
L 1081 2816 
Q 1244 2928 1461 2984 
Q 1678 3041 1947 3041 
Q 2703 3041 3140 2622 
Q 3578 2203 3578 1478 
Q 3578 738 3136 323 
Q 2694 -91 1894 -91 
Q 1572 -91 1234 -12 
Q 897 66 544 225 
L 544 1131 
L 897 1131 
Q 925 688 1179 453 
Q 1434 219 1894 219 
Q 2388 219 2653 544 
Q 2919 869 2919 1478 
Q 2919 2084 2655 2407 
Q 2391 2731 1894 2731 
Q 1613 2731 1398 2631 
Q 1184 2531 1019 2322 
L 750 2322 
L 750 4666 
L 3219 4666 
z
" transform="scale(0.015625)"/>
       </defs>
       <use xlink:href="#DejaVuSerif-35"/>
       <use xlink:href="#DejaVuSerif-30" transform="translate(63.623047 0)"/>
      </g>
     </g>
    </g>
    <g id="xtick_3">
     <g id="line2d_16">
      <g>
       <use xlink:href="#meb08c17d42" x="222.977688" y="233.56" style="stroke: #000000; stroke-width: 0.8"/>
      </g>
     </g>
     <g id="text_6">
      <!-- 100 -->
      <g transform="translate(209.616438 251.197813) scale(0.14 -0.14)">
       <use xlink:href="#DejaVuSerif-31"/>
       <use xlink:href="#DejaVuSerif-30" transform="translate(63.623047 0)"/>
       <use xlink:href="#DejaVuSerif-30" transform="translate(127.246094 0)"/>
      </g>
     </g>
    </g>
    <g id="text_7">
     <!-- Node -->
     <g transform="translate(135.403927 274.747188) scale(0.14 -0.14)">
      <defs>
       <path id="DejaVuSerif-4e" d="M 313 0 
L 313 331 
L 941 331 
L 941 4331 
L 313 4331 
L 313 4666 
L 1509 4666 
L 4306 984 
L 4306 4331 
L 3681 4331 
L 3681 4666 
L 5319 4666 
L 5319 4331 
L 4691 4331 
L 4691 -91 
L 4313 -91 
L 1325 3841 
L 1325 331 
L 1953 331 
L 1953 0 
L 313 0 
z
" transform="scale(0.015625)"/>
       <path id="DejaVuSerif-6f" d="M 1925 219 
Q 2388 219 2623 584 
Q 2859 950 2859 1663 
Q 2859 2375 2623 2739 
Q 2388 3103 1925 3103 
Q 1463 3103 1227 2739 
Q 991 2375 991 1663 
Q 991 950 1228 584 
Q 1466 219 1925 219 
z
M 1925 -91 
Q 1200 -91 759 389 
Q 319 869 319 1663 
Q 319 2456 758 2934 
Q 1197 3413 1925 3413 
Q 2653 3413 3092 2934 
Q 3531 2456 3531 1663 
Q 3531 869 3092 389 
Q 2653 -91 1925 -91 
z
" transform="scale(0.015625)"/>
       <path id="DejaVuSerif-64" d="M 3359 331 
L 3909 331 
L 3909 0 
L 2784 0 
L 2784 519 
Q 2616 206 2355 57 
Q 2094 -91 1709 -91 
Q 1097 -91 708 395 
Q 319 881 319 1663 
Q 319 2444 706 2928 
Q 1094 3413 1709 3413 
Q 2094 3413 2355 3264 
Q 2616 3116 2784 2803 
L 2784 4531 
L 2241 4531 
L 2241 4863 
L 3359 4863 
L 3359 331 
z
M 2784 1497 
L 2784 1825 
Q 2784 2422 2554 2737 
Q 2325 3053 1888 3053 
Q 1444 3053 1217 2703 
Q 991 2353 991 1663 
Q 991 975 1217 622 
Q 1444 269 1888 269 
Q 2325 269 2554 583 
Q 2784 897 2784 1497 
z
" transform="scale(0.015625)"/>
      </defs>
      <use xlink:href="#DejaVuSerif-4e"/>
      <use xlink:href="#DejaVuSerif-6f" transform="translate(87.5 0)"/>
      <use xlink:href="#DejaVuSerif-64" transform="translate(147.705078 0)"/>
      <use xlink:href="#DejaVuSerif-65" transform="translate(211.71875 0)"/>
     </g>
    </g>
   </g>
   <g id="matplotlib.axis_4">
    <g id="ytick_12">
     <g id="line2d_17">
      <g>
       <use xlink:href="#m8b715b4fd6" x="67.534728" y="187.078751" style="stroke: #000000; stroke-width: 0.8"/>
      </g>
     </g>
     <g id="text_8">
      <!-- $\mathdefault{10^{-3}}$ -->
      <g transform="translate(27.774728 192.397657) scale(0.14 -0.14)">
       <defs>
        <path id="DejaVuSerif-2212" d="M 678 2259 
L 4684 2259 
L 4684 1753 
L 678 1753 
L 678 2259 
z
" transform="scale(0.015625)"/>
        <path id="DejaVuSerif-33" d="M 622 4469 
Q 988 4606 1323 4678 
Q 1659 4750 1953 4750 
Q 2638 4750 3022 4454 
Q 3406 4159 3406 3634 
Q 3406 3213 3140 2930 
Q 2875 2647 2388 2547 
Q 2963 2466 3280 2130 
Q 3597 1794 3597 1259 
Q 3597 606 3158 257 
Q 2719 -91 1894 -91 
Q 1528 -91 1179 -12 
Q 831 66 488 225 
L 488 1131 
L 838 1131 
Q 869 681 1141 450 
Q 1413 219 1906 219 
Q 2384 219 2661 495 
Q 2938 772 2938 1253 
Q 2938 1803 2653 2086 
Q 2369 2369 1819 2369 
L 1522 2369 
L 1522 2688 
L 1678 2688 
Q 2225 2688 2498 2914 
Q 2772 3141 2772 3597 
Q 2772 4006 2547 4223 
Q 2322 4441 1900 4441 
Q 1478 4441 1245 4241 
Q 1013 4041 972 3647 
L 622 3647 
L 622 4469 
z
" transform="scale(0.015625)"/>
       </defs>
       <use xlink:href="#DejaVuSerif-31" transform="translate(0 0.7125)"/>
       <use xlink:href="#DejaVuSerif-30" transform="translate(63.623047 0.7125)"/>
       <use xlink:href="#DejaVuSerif-2212" transform="translate(128.154453 37.046875) scale(0.7)"/>
       <use xlink:href="#DejaVuSerif-33" transform="translate(186.806797 37.046875) scale(0.7)"/>
      </g>
     </g>
    </g>
    <g id="ytick_13">
     <g id="line2d_18">
      <g>
       <use xlink:href="#m8b715b4fd6" x="67.534728" y="135.334839" style="stroke: #000000; stroke-width: 0.8"/>
      </g>
     </g>
     <g id="text_9">
      <!-- $\mathdefault{10^{-1}}$ -->
      <g transform="translate(27.774728 140.653746) scale(0.14 -0.14)">
       <use xlink:href="#DejaVuSerif-31" transform="translate(0 0.7125)"/>
       <use xlink:href="#DejaVuSerif-30" transform="translate(63.623047 0.7125)"/>
       <use xlink:href="#DejaVuSerif-2212" transform="translate(128.154453 37.046875) scale(0.7)"/>
       <use xlink:href="#DejaVuSerif-31" transform="translate(186.806797 37.046875) scale(0.7)"/>
      </g>
     </g>
    </g>
    <g id="text_10">
     <!-- Cent. -->
     <g transform="translate(20.863166 200.617932) rotate(-90) scale(0.14 -0.14)">
      <defs>
       <path id="DejaVuSerif-43" d="M 4513 1234 
Q 4306 581 3820 245 
Q 3334 -91 2591 -91 
Q 2134 -91 1743 65 
Q 1353 222 1050 525 
Q 700 875 529 1320 
Q 359 1766 359 2328 
Q 359 3416 987 4083 
Q 1616 4750 2644 4750 
Q 3025 4750 3456 4650 
Q 3888 4550 4384 4347 
L 4384 3272 
L 4031 3272 
Q 3916 3859 3567 4137 
Q 3219 4416 2591 4416 
Q 1844 4416 1459 3886 
Q 1075 3356 1075 2328 
Q 1075 1303 1459 773 
Q 1844 244 2591 244 
Q 3113 244 3450 492 
Q 3788 741 3938 1234 
L 4513 1234 
z
" transform="scale(0.015625)"/>
       <path id="DejaVuSerif-6e" d="M 263 0 
L 263 331 
L 781 331 
L 781 2988 
L 231 2988 
L 231 3322 
L 1356 3322 
L 1356 2731 
Q 1516 3069 1770 3241 
Q 2025 3413 2363 3413 
Q 2913 3413 3172 3097 
Q 3431 2781 3431 2113 
L 3431 331 
L 3944 331 
L 3944 0 
L 2356 0 
L 2356 331 
L 2853 331 
L 2853 1931 
Q 2853 2541 2703 2767 
Q 2553 2994 2175 2994 
Q 1775 2994 1565 2701 
Q 1356 2409 1356 1850 
L 1356 331 
L 1856 331 
L 1856 0 
L 263 0 
z
" transform="scale(0.015625)"/>
       <path id="DejaVuSerif-74" d="M 691 2988 
L 184 2988 
L 184 3322 
L 691 3322 
L 691 4353 
L 1269 4353 
L 1269 3322 
L 2350 3322 
L 2350 2988 
L 1269 2988 
L 1269 878 
Q 1269 456 1350 337 
Q 1431 219 1650 219 
Q 1875 219 1978 351 
Q 2081 484 2088 781 
L 2522 781 
Q 2497 328 2275 118 
Q 2053 -91 1600 -91 
Q 1103 -91 897 129 
Q 691 350 691 878 
L 691 2988 
z
" transform="scale(0.015625)"/>
      </defs>
      <use xlink:href="#DejaVuSerif-43"/>
      <use xlink:href="#DejaVuSerif-65" transform="translate(76.513672 0)"/>
      <use xlink:href="#DejaVuSerif-6e" transform="translate(135.693359 0)"/>
      <use xlink:href="#DejaVuSerif-74" transform="translate(200.097656 0)"/>
      <use xlink:href="#DejaVuSerif-2e" transform="translate(240.283203 0)"/>
     </g>
    </g>
   </g>
   <g id="line2d_19">
    <path d="M 75.428604 134.311067 
L 76.904095 136.077398 
L 78.379586 137.073098 
L 79.855077 140.308341 
L 81.330567 147.154525 
L 82.806058 150.976564 
L 84.281549 150.976564 
L 85.75704 150.976564 
L 87.232531 150.976564 
L 88.708022 152.734227 
L 90.183512 152.734227 
L 91.659003 152.734227 
L 93.134494 155.857078 
L 94.609985 155.857078 
L 96.085476 155.857078 
L 97.560967 156.268209 
L 99.036457 156.268209 
L 100.511948 156.268209 
L 101.987439 157.077836 
L 103.46293 157.077836 
L 104.938421 157.077836 
L 106.413912 157.153686 
L 107.889403 157.153686 
L 109.364893 157.153686 
L 110.840384 157.153686 
L 112.315875 157.153686 
L 113.791366 157.153686 
L 115.266857 159.297949 
L 116.742348 159.297949 
L 118.217838 161.818459 
L 119.693329 162.260519 
L 121.16882 162.260519 
L 122.644311 162.866199 
L 124.119802 162.997744 
L 125.595293 162.997744 
L 127.070783 163.590457 
L 128.546274 163.590457 
L 130.021765 163.590457 
L 131.497256 163.590457 
L 132.972747 163.590457 
L 134.448238 164.442257 
L 135.923729 164.442257 
L 137.399219 164.442257 
L 138.87471 164.442257 
L 140.350201 164.442257 
L 141.825692 166.136602 
L 143.301183 167.558589 
L 144.776674 167.558589 
L 146.252164 169.302841 
L 147.727655 169.302841 
L 149.203146 176.306608 
L 150.678637 176.306608 
L 152.154128 176.306608 
L 153.629619 177.781331 
L 155.105109 180.972943 
L 156.5806 180.972943 
L 158.056091 181.104719 
L 159.531582 181.104719 
L 161.007073 184.266697 
L 162.482564 185.816682 
L 163.958054 186.068311 
L 165.433545 186.068311 
L 166.909036 186.068311 
L 168.384527 188.126983 
L 169.860018 188.274787 
L 171.335509 188.274787 
L 172.811 188.274787 
L 174.28649 188.274787 
L 175.761981 188.274787 
L 177.237472 188.274787 
L 178.712963 188.274787 
L 180.188454 188.274787 
L 181.663945 188.274787 
L 183.139435 188.54822 
L 184.614926 190.602107 
L 186.090417 191.248867 
L 187.565908 191.248867 
L 189.041399 191.248867 
L 190.51689 191.248867 
L 191.99238 191.962275 
L 193.467871 191.962275 
L 194.943362 191.962275 
L 196.418853 194.178972 
L 197.894344 194.178972 
L 199.369835 194.439031 
L 200.845326 194.439031 
L 202.320816 194.439031 
L 203.796307 203.484901 
L 205.271798 212.837498 
L 206.747289 212.837498 
L 208.22278 212.837498 
L 209.698271 212.837498 
L 211.173761 213.177377 
L 212.649252 215.20286 
L 214.124743 219.0021 
L 215.600234 219.0021 
L 217.075725 219.0021 
L 218.551216 219.0021 
L 220.026706 220.063303 
L 221.502197 220.063303 
L 222.977688 220.063303 
L 224.453179 220.063303 
L 225.92867 220.761018 
L 227.404161 220.761018 
L 228.879651 220.761018 
L 230.355142 228.83386 
L 231.830633 228.83386 
L 233.306124 228.83386 
" clip-path="url(#p424b94bf27)" style="fill: none; stroke: #800000; stroke-width: 1.5; stroke-linecap: square"/>
   </g>
   <g id="line2d_20">
    <path d="M 75.428604 156.153077 
L 76.904095 156.015943 
L 78.379586 156.352557 
L 79.855077 157.593924 
L 81.330567 158.602943 
L 82.806058 159.15312 
L 84.281549 159.15312 
L 85.75704 159.15312 
L 87.232531 159.15312 
L 88.708022 158.678116 
L 90.183512 158.678116 
L 91.659003 158.678116 
L 93.134494 159.054231 
L 94.609985 159.054231 
L 96.085476 159.054231 
L 97.560967 157.854005 
L 99.036457 157.854004 
L 100.511948 157.854002 
L 101.987439 158.678872 
L 103.46293 158.678872 
L 104.938421 158.678872 
L 106.413912 161.00389 
L 107.889403 161.00389 
L 109.364893 161.00389 
L 110.840384 161.00389 
L 112.315875 161.00389 
L 113.791366 161.00389 
L 115.266857 159.564877 
L 116.742348 159.564877 
L 118.217838 161.622643 
L 119.693329 161.757617 
L 121.16882 161.757617 
L 122.644311 163.651073 
L 124.119802 161.873546 
L 125.595293 161.873546 
L 127.070783 163.67678 
L 128.546274 163.67678 
L 130.021765 163.67678 
L 131.497256 163.67678 
L 132.972747 163.67678 
L 134.448238 162.558334 
L 135.923729 162.558334 
L 137.399219 162.558334 
L 138.87471 162.558334 
L 140.350201 162.558334 
L 141.825692 155.632834 
L 143.301183 157.947372 
L 144.776674 157.947372 
L 146.252164 159.809446 
L 147.727655 159.809446 
L 149.203146 160.928454 
L 150.678637 160.928454 
L 152.154128 160.928454 
L 153.629619 163.300757 
L 155.105109 155.474922 
L 156.5806 155.474922 
L 158.056091 163.806954 
L 159.531582 163.806954 
L 161.007073 163.960957 
L 162.482564 164.953162 
L 163.958054 165.086888 
L 165.433545 165.086888 
L 166.909036 165.086888 
L 168.384527 169.746798 
L 169.860018 170.113022 
L 171.335509 170.113022 
L 172.811 170.113022 
L 174.28649 170.113022 
L 175.761981 170.113022 
L 177.237472 170.113022 
L 178.712963 170.113022 
L 180.188454 170.113022 
L 181.663945 170.113022 
L 183.139435 156.520388 
L 184.614926 164.308312 
L 186.090417 157.539059 
L 187.565908 157.539059 
L 189.041399 157.539059 
L 190.51689 157.539059 
L 191.99238 165.227011 
L 193.467871 165.227011 
L 194.943362 165.227011 
L 196.418853 156.762562 
L 197.894344 156.762563 
L 199.369835 167.84411 
L 200.845326 167.84411 
L 202.320816 167.84411 
L 203.796307 157.042222 
L 205.271798 166.750136 
L 206.747289 166.750136 
L 208.22278 166.750136 
L 209.698271 166.750136 
L 211.173761 167.464014 
L 212.649252 167.245017 
L 214.124743 171.029438 
L 215.600234 171.029438 
L 217.075725 171.029438 
L 218.551216 171.029438 
L 220.026706 168.390867 
L 221.502197 168.390867 
L 222.977688 168.390867 
L 224.453179 168.390867 
L 225.92867 168.056109 
L 227.404161 168.056109 
L 228.879651 168.056109 
L 230.355142 167.805007 
L 231.830633 167.805007 
L 233.306124 167.805007 
" clip-path="url(#p424b94bf27)" style="fill: none; stroke-dasharray: 5.55,2.4; stroke-dashoffset: 0; stroke: #008080; stroke-width: 1.5"/>
   </g>
   <g id="patch_6">
    <path d="M 67.534728 233.56 
L 67.534728 129.584927 
" style="fill: none; stroke: #000000; stroke-width: 0.8; stroke-linejoin: miter; stroke-linecap: square"/>
   </g>
   <g id="patch_7">
    <path d="M 67.534728 233.56 
L 241.2 233.56 
" style="fill: none; stroke: #000000; stroke-width: 0.8; stroke-linejoin: miter; stroke-linecap: square"/>
   </g>
  </g>
 </g>
 <defs>
  <clipPath id="p1413fbb3ef">
   <rect x="67.534728" y="10.8" width="173.665272" height="103.975073"/>
  </clipPath>
  <clipPath id="p424b94bf27">
   <rect x="67.534728" y="129.584927" width="173.665272" height="103.975073"/>
  </clipPath>
 </defs>
</svg>
